<?xml version="1.0" encoding="UTF-8" standalone="no"?>
<!DOCTYPE svg PUBLIC "-//W3C//DTD SVG 1.1//EN" "http://www.w3.org/Graphics/SVG/1.1/DTD/svg11.dtd">
<svg width="100%" height="100%" viewBox="0 0 640 640" version="1.1" xmlns="http://www.w3.org/2000/svg" xmlns:xlink="http://www.w3.org/1999/xlink" xml:space="preserve" xmlns:serif="http://www.serif.com/" style="fill-rule:evenodd;clip-rule:evenodd;">
    <g transform="matrix(1,0,0,1,117.493,138.987)">
        <g transform="matrix(1,0,0,1,-17.1706,10.0641)">
            <g transform="matrix(1,0,0,1,74.5289,-63.5816)">
                <path d="M167.89,65.402L66.6,103.94C74.656,78.967 81.13,49.334 178.04,52.431L167.89,65.402Z" style="fill:rgb(237,28,36);fill-rule:nonzero;"/>
            </g>
            <g transform="matrix(1,0,0,1,74.5289,-63.5816)">
                <path d="M261.79,100.67C261.359,100.67 260.926,100.634 260.489,100.563C256.665,99.93 253.861,96.623 253.861,92.746L253.855,89.964C253.798,69.444 254.798,58.863 277.994,42.695C279.669,41.525 281.533,40.278 283.523,38.996C286.175,37.287 288.652,35.717 290.952,34.255C302.14,27.153 310.226,22.022 310.226,18.816C310.226,15.033 312.899,11.779 316.609,11.045C317.127,10.942 317.642,10.892 318.154,10.892C321.31,10.892 324.233,12.786 325.472,15.797C338.688,47.858 312.771,63.225 293.85,74.447C283.088,80.827 271.963,87.426 269.284,95.3C268.194,98.551 265.144,100.673 261.804,100.673L261.79,100.67Z" style="fill:url(#_Linear1);fill-rule:nonzero;"/>
                <path d="M318.15,18.813C335.567,61.066 271.048,65.538 261.787,92.741C261.787,72.811 260.652,64.44 282.528,49.191C284.155,48.053 285.914,46.877 287.813,45.654C308.273,32.474 318.143,27.494 318.143,18.813M318.153,2.966C317.132,2.966 316.1,3.065 315.067,3.269C308.323,4.604 303.292,10.104 302.43,16.774C299.97,19.144 292.958,23.594 286.699,27.566C284.386,29.034 281.897,30.614 279.23,32.331C277.171,33.656 275.222,34.96 273.442,36.205C260.761,45.044 253.664,52.794 249.728,62.105C245.878,71.213 245.903,79.909 245.931,89.979C245.934,90.874 245.936,91.794 245.936,92.74C245.936,100.492 251.545,107.106 259.194,108.372C260.065,108.516 260.933,108.586 261.793,108.586C268.474,108.586 274.568,104.349 276.782,97.846C278.519,92.742 289.26,86.373 297.889,81.256C308.622,74.891 319.721,68.309 327.549,58.459C337.92,45.407 339.734,29.608 332.794,12.772C330.314,6.76 324.464,2.972 318.154,2.972L318.153,2.966Z" style="fill:rgb(237,28,36);fill-rule:nonzero;"/>
            </g>
            <g transform="matrix(1,0,0,1,74.5289,-63.5816)">
                <circle cx="148.88" cy="213.15" r="136.72" style="fill:none;stroke:rgb(237,28,36);stroke-width:24.31px;"/>
            </g>
            <g transform="matrix(1,0,0,1,74.5289,-63.5816)">
                <path d="M158.05,339.31C153.044,339.31 147.935,338.994 142.849,338.372C115.458,338.094 59.039,323.324 36.279,268.882C22.185,235.168 20.547,203.826 31.412,175.727C39.771,154.104 55.33,134.908 77.657,118.668C99.233,102.976 122.267,99.455 139.086,96.885C146.23,95.794 154.325,94.556 156.954,92.803C159.031,91.415 162.514,83.695 165.056,78.057C176.172,53.408 194.779,12.153 265.686,12.153C271.621,12.153 276.686,16.439 277.671,22.291C278.654,28.144 275.268,33.851 269.661,35.791C259.026,39.472 252.689,43.343 250.286,47.627C248.176,51.393 248.216,57.18 248.266,64.507C248.314,71.402 248.375,79.982 246.551,89.659C244.123,102.55 239.524,114.432 234.018,124.682C265.968,114.222 300.588,99.952 312.888,70.312C314.814,65.677 319.312,62.814 324.112,62.814C325.254,62.814 326.414,62.977 327.559,63.315C333.519,65.078 337.19,71.053 336.068,77.167C329.986,110.255 317.794,147.1 275.938,176.035C276.089,176.033 276.242,176.031 276.393,176.031C280.27,176.031 283.96,176.667 287.53,177.282L288.044,177.37C291.194,177.909 294.011,178.358 296.611,178.358C300.036,178.358 303.843,177.717 308.485,173.078C310.81,170.755 313.919,169.518 317.08,169.518C318.647,169.518 320.226,169.821 321.73,170.445C326.27,172.326 329.232,176.757 329.232,181.673C329.232,204.289 312.413,214.228 297.574,222.997C283.322,231.419 268.589,240.128 262.476,260.815C255.456,284.565 241.883,304.457 223.226,318.343C204.806,332.063 182.266,339.313 158.056,339.313L158.05,339.31Z" style="fill:white;fill-rule:nonzero;"/>
                <path d="M265.68,24.307C224.525,38.553 240.409,56.593 234.604,87.407C228.666,118.941 208.277,143.449 198.022,149.35C232.845,135.573 303.542,124.554 324.122,74.959C316.657,115.584 300.908,150.935 250.434,177.159C230.309,187.617 219.78,202.636 219.78,218.632C222.794,200.687 237.147,193.113 273.926,188.319C274.732,188.214 275.557,188.168 276.4,188.168C279.392,188.168 282.61,188.75 285.998,189.332C289.386,189.914 292.945,190.496 296.621,190.496C303.173,190.496 310.096,188.647 317.088,181.655C317.088,214.585 265.086,209.101 250.832,257.354C237.964,300.888 201.692,327.151 158.044,327.151C153.317,327.151 148.511,326.843 143.631,326.216C119.106,326.216 67.768,312.696 47.488,264.188C19.057,196.181 50.826,153.198 84.799,128.488C115.699,106.013 150.844,111.48 163.696,102.9C181.736,90.86 178.616,24.307 265.676,24.307M265.676,-0C232.059,-0 204.959,8.943 185.129,26.582C168.094,41.734 159.929,59.84 153.967,73.06C152.529,76.247 150.675,80.358 149.348,82.729C146.409,83.47 141.233,84.261 137.241,84.871C120.207,87.474 94.466,91.408 70.498,108.84C46.251,126.475 29.284,147.505 20.067,171.343C8.033,202.468 9.713,236.862 25.058,273.563C36.141,300.072 56.136,321.326 82.882,335.026C101.299,344.461 123.279,350.199 142.033,350.509C147.387,351.138 152.764,351.457 158.039,351.457C184.885,351.457 209.937,343.372 230.488,328.075C251.272,312.605 266.366,290.533 274.136,264.243C278.663,248.917 288.342,242.555 303.76,233.443C311.658,228.775 319.825,223.949 326.716,216.995C336.452,207.167 341.389,195.277 341.389,181.654C341.389,171.823 335.467,162.96 326.384,159.197C323.377,157.952 320.219,157.346 317.088,157.346C316.184,157.346 315.281,157.397 314.386,157.497C317.765,153.406 320.894,149.143 323.781,144.703C335.417,126.808 343.12,106.04 348.025,79.346C350.271,67.12 342.931,55.17 331.011,51.645C328.719,50.967 326.399,50.643 324.115,50.643C314.514,50.642 305.516,56.364 301.669,65.638C294.319,83.349 276.164,95.015 255.654,103.76C256.749,99.978 257.711,96.018 258.486,91.899C260.526,81.07 260.462,71.837 260.411,64.419C260.384,60.538 260.347,55.263 260.885,53.592C261.353,53.097 264.074,50.578 273.626,47.272C284.842,43.39 291.614,31.976 289.646,20.272C287.696,8.571 277.566,-0 265.696,-0L265.676,-0Z" style="fill:rgb(237,28,36);fill-rule:nonzero;"/>
            </g>
            <g transform="matrix(1,0,0,1,74.5289,-63.5816)">
                <path d="M284.81,163.63C309.486,163.63 350.843,154.331 370.209,123.658C387.328,96.544 375.544,62.305 398.552,51.301C354.539,51.301 336.144,61.936 324.136,102.614C312.146,143.284 307.496,158.954 284.816,163.624L284.81,163.63Z" style="fill:url(#_Linear2);fill-rule:nonzero;stroke:rgb(237,28,36);stroke-width:12.91px;stroke-linecap:square;stroke-linejoin:round;"/>
            </g>
            <g transform="matrix(1,0,0,1,74.5289,-63.5816)">
                <path d="M242.22,192.82C250.359,180.197 259.488,171.909 284.816,171.088C309.587,170.287 318.84,168.495 326.966,157.152C315.623,181.663 301.428,183.872 285.064,184.248C268.684,184.618 248.834,182.548 242.214,192.818L242.22,192.82Z" style="fill:url(#_Linear3);fill-rule:nonzero;"/>
            </g>
            <g transform="matrix(1,0,0,1,74.5289,-63.5816)">
                <path d="M220.66,138.44C220.66,125.259 232.412,112.575 247.198,105.943C264.916,97.997 272.472,99.776 285.107,84.261C282.217,110.456 269.763,117.496 259.473,122.553C244.763,129.773 233.803,126.703 220.653,138.443L220.66,138.44Z" style="fill:url(#_Linear4);fill-rule:nonzero;"/>
            </g>
            <g transform="matrix(1,0,0,1,74.5289,-63.5816)">
                <path d="M82.134,120.21C85.035,108.283 78.046,75.56 147.903,71.529C155.317,71.529 167.89,69.594 167.89,65.404C169.87,93.664 142.912,99.899 126.148,101.833C109.378,103.773 91.313,111.033 82.132,120.213L82.134,120.21Z" style="fill:url(#_Linear5);fill-rule:nonzero;"/>
            </g>
            <g transform="matrix(1,0,0,1,74.5289,-63.5816)">
                <path d="M87.551,140.33C33.199,177.833 32.586,256.48 83.505,295.77C128.948,330.835 175.535,315.92 190.815,309.372C202.575,304.335 236.722,279.787 248.119,236.493C252.318,220.534 278.352,207.935 284.237,207.935C269.958,207.935 222.081,218.014 215.367,236.493C215.367,213.815 215.367,195.338 233.841,176.86C252.315,158.382 283.35,149.397 287.594,123.109C284.316,133.226 244.763,151.664 204.446,161.744C164.131,171.823 150.274,185.681 150.274,185.681C157.411,163.425 182.537,155.241 198.639,139.139C216.368,121.412 219.572,89.513 219.572,72.715C219.572,55.917 221.851,36.6 230.597,36.6C214.468,43.987 185.156,72.792 182.48,90.225C177.7,121.359 117.75,119.489 87.551,140.329L87.551,140.33Z" style="fill:url(#_Linear6);fill-rule:nonzero;"/>
            </g>
            <g transform="matrix(1,0,0,1,74.5289,-63.5816)">
                <path d="M295.1,74.25C315.791,76.406 344.068,65.199 354.411,47.524C364.755,29.851 385.103,16.056 390.277,16.056C359.672,16.056 341.264,27.985 334.756,35.465C326.136,45.382 312.606,66.333 295.096,74.25L295.1,74.25Z" style="fill:url(#_Linear7);fill-rule:nonzero;stroke:rgb(237,28,36);stroke-width:9.9px;stroke-linecap:square;stroke-linejoin:round;"/>
            </g>
        </g>
        <g transform="matrix(1,0,0,1,-117.493,-138.987)">
            <path d="M451.356,407.328C453.058,405.903 454.748,404.457 456.439,402.979L546.426,483.323L510.252,532.821L433.382,483.323L372.339,507.413L354.251,598.401L288.686,599L268.338,510.322L207.294,483.323L130.424,535.07L82.946,485.572L82.947,485.572L138.904,414.137L114.6,355.077L26.426,332.579L26.69,267.991L112.339,253.832L137.209,193.085L93.315,118.566L141.73,79L211.818,123.339L234.426,112.09L234.426,158.197C186.959,187.657 155.348,240.04 155.348,299.698C155.348,391.721 230.559,466.432 323.199,466.432C374.558,466.432 420.561,443.468 451.356,407.328Z" style="fill:rgb(237,28,36);"/>
        </g>
    </g>
    <defs>
        <linearGradient id="_Linear1" x1="0" y1="0" x2="1" y2="0" gradientUnits="userSpaceOnUse" gradientTransform="matrix(-68.76,91.972,-91.972,-68.76,324.47,11.248)"><stop offset="0" style="stop-color:white;stop-opacity:1"/><stop offset="0.48" style="stop-color:rgb(255,242,0);stop-opacity:1"/><stop offset="1" style="stop-color:rgb(237,28,36);stop-opacity:1"/></linearGradient>
        <linearGradient id="_Linear2" x1="0" y1="0" x2="1" y2="0" gradientUnits="userSpaceOnUse" gradientTransform="matrix(-108.15,117.477,-117.477,-108.15,398.12,50.903)"><stop offset="0" style="stop-color:white;stop-opacity:1"/><stop offset="0.48" style="stop-color:rgb(255,242,0);stop-opacity:1"/><stop offset="1" style="stop-color:rgb(237,28,36);stop-opacity:1"/></linearGradient>
        <linearGradient id="_Linear3" x1="0" y1="0" x2="1" y2="0" gradientUnits="userSpaceOnUse" gradientTransform="matrix(-87.2,35.03,-35.03,-87.2,328.17,160.16)"><stop offset="0" style="stop-color:white;stop-opacity:1"/><stop offset="0.48" style="stop-color:rgb(255,242,0);stop-opacity:1"/><stop offset="1" style="stop-color:rgb(237,28,36);stop-opacity:1"/></linearGradient>
        <linearGradient id="_Linear4" x1="0" y1="0" x2="1" y2="0" gradientUnits="userSpaceOnUse" gradientTransform="matrix(-158.91,107.492,-107.492,-158.91,317.96,70.478)"><stop offset="0" style="stop-color:white;stop-opacity:1"/><stop offset="0.48" style="stop-color:rgb(255,242,0);stop-opacity:1"/><stop offset="1" style="stop-color:rgb(237,28,36);stop-opacity:1"/></linearGradient>
        <linearGradient id="_Linear5" x1="0" y1="0" x2="1" y2="0" gradientUnits="userSpaceOnUse" gradientTransform="matrix(-85.903,54.585,-54.585,-85.903,164.73,64.575)"><stop offset="0" style="stop-color:white;stop-opacity:1"/><stop offset="0.48" style="stop-color:rgb(255,242,0);stop-opacity:1"/><stop offset="1" style="stop-color:rgb(237,28,36);stop-opacity:1"/></linearGradient>
        <linearGradient id="_Linear6" x1="0" y1="0" x2="1" y2="0" gradientUnits="userSpaceOnUse" gradientTransform="matrix(-211.073,174.96,-174.96,-211.073,286.48,104.02)"><stop offset="0" style="stop-color:white;stop-opacity:1"/><stop offset="0.48" style="stop-color:rgb(255,242,0);stop-opacity:1"/><stop offset="1" style="stop-color:rgb(237,28,36);stop-opacity:1"/></linearGradient>
        <linearGradient id="_Linear7" x1="0" y1="0" x2="1" y2="0" gradientUnits="userSpaceOnUse" gradientTransform="matrix(-65.47,87.5674,-87.5674,-65.47,374.8,2.2056)"><stop offset="0" style="stop-color:white;stop-opacity:1"/><stop offset="0.48" style="stop-color:rgb(255,242,0);stop-opacity:1"/><stop offset="1" style="stop-color:rgb(237,28,36);stop-opacity:1"/></linearGradient>
    </defs>
</svg>
