<?xml version="1.0" encoding="UTF-8" standalone="no"?>
<!DOCTYPE svg PUBLIC "-//W3C//DTD SVG 1.1//EN" "http://www.w3.org/Graphics/SVG/1.1/DTD/svg11.dtd">
<svg width="100%" height="100%" viewBox="0 0 1280 1280" version="1.1" xmlns="http://www.w3.org/2000/svg" xmlns:xlink="http://www.w3.org/1999/xlink" xml:space="preserve" xmlns:serif="http://www.serif.com/" style="fill-rule:evenodd;clip-rule:evenodd;stroke-linecap:round;stroke-linejoin:round;stroke-miterlimit:1.5;">
    <g id="Combo-Box-Arrow" serif:id="Combo Box Arrow" transform="matrix(2.33492,0,0,2.83041,-825.551,-1650.68)">
        <g transform="matrix(1.81445,0,0,-1.49681,-164.121,1005.47)">
            <path d="M359.426,134.56L364.576,140.16L354.276,140.16L359.426,134.56Z" style="fill:rgb(225,193,0);"/>
        </g>
        <g id="ComboBox.TextureArrow.Part" transform="matrix(0.168183,0,0,0.207401,412.271,668.1)">
            <rect x="341.017" y="562.054" width="219" height="146.5" style="fill:rgb(178,147,0);fill-opacity:0;"/>
        </g>
    </g>
    <g id="Combo-Box-Arrow1" serif:id="Combo Box Arrow" transform="matrix(2.33492,0,0,2.83041,-825.551,-1554.68)">
        <g transform="matrix(1.81445,0,0,-1.49681,-164.121,1005.47)">
            <path d="M359.426,134.56L364.576,140.16L354.276,140.16L359.426,134.56Z" style="fill:rgb(255,243,135);"/>
        </g>
        <g id="ComboBox.TextureArrowHover.Part" transform="matrix(0.168183,0,0,0.207401,412.271,668.1)">
            <rect x="341.017" y="562.054" width="219" height="146.5" style="fill:rgb(92,92,92);fill-opacity:0;"/>
        </g>
    </g>
    <g id="Combo-Box-Arrow2" serif:id="Combo Box Arrow" transform="matrix(2.33492,0,0,2.83041,-825.551,-1458.68)">
        <g transform="matrix(1.81445,0,0,-1.49681,-164.121,1005.47)">
            <path d="M359.426,134.56L364.576,140.16L354.276,140.16L359.426,134.56Z" style="fill:rgb(92,92,92);"/>
        </g>
        <g id="ComboBox.TextureArrowDisabled.Part" transform="matrix(0.168183,0,0,0.207401,412.271,668.1)">
            <rect x="341.017" y="562.054" width="219" height="146.5" style="fill:rgb(92,92,92);fill-opacity:0;"/>
        </g>
    </g>
    <g id="Disabled-Combo-Box" serif:id="Disabled Combo Box" transform="matrix(1,0,0,1,36,282)">
        <g transform="matrix(0.658976,0,0,0.953939,45.3373,27.0521)">
            <path d="M269.016,492.368C269.016,482.461 257.373,474.418 243.032,474.418L145,474.418C130.659,474.418 119.016,482.461 119.016,492.368L119.016,538.969C119.016,548.875 130.659,556.918 145,556.918L243.032,556.918C257.373,556.918 269.016,548.875 269.016,538.969L269.016,492.368Z" style="fill:rgb(35,35,35);"/>
        </g>
        <path d="M174.416,477.452L174.416,481.918L136.89,481.918L126.223,493.996C125.407,494.92 123.995,495.008 123.071,494.192C122.148,493.376 122.06,491.964 122.876,491.041L134.209,478.207C134.633,477.727 135.242,477.452 135.883,477.452L174.416,477.452Z" style="fill:rgb(93,93,93);"/>
        <g transform="matrix(-1,0,0,1,347.733,0)">
            <path d="M174.416,477.452L174.416,481.918L136.89,481.918L126.223,493.996C125.407,494.92 123.995,495.008 123.071,494.192C122.148,493.376 122.06,491.964 122.876,491.041L134.209,478.207C134.633,477.727 135.242,477.452 135.883,477.452L174.416,477.452Z" style="fill:rgb(93,93,93);"/>
        </g>
        <path d="M174.416,560.749L135.883,560.749C135.243,560.749 134.634,560.475 134.21,559.995L122.876,547.161C122.061,546.238 122.148,544.825 123.072,544.01C123.996,543.194 125.408,543.282 126.224,544.205L136.89,556.284L174.416,556.284L174.416,560.749Z" style="fill:rgb(93,93,93);"/>
        <g transform="matrix(-1,0,0,1,347.733,0)">
            <path d="M174.416,560.749L135.883,560.749C135.243,560.749 134.634,560.475 134.21,559.995L122.876,547.161C122.061,546.238 122.148,544.825 123.072,544.01C123.996,543.194 125.408,543.282 126.224,544.205L136.89,556.284L174.416,556.284L174.416,560.749Z" style="fill:rgb(93,93,93);"/>
        </g>
        <g transform="matrix(-0.860985,0,0,0.860985,312.975,70.7053)">
            <path d="M210.491,495.896L212.968,495.896C219.328,495.896 224.491,501.06 224.491,507.419L224.491,534.498C224.491,540.858 219.328,546.021 212.968,546.021L210.491,546.021L210.491,495.896Z" style="fill:rgb(134,134,134);"/>
        </g>
        <g transform="matrix(0.860985,0,0,0.860985,33.7433,70.7053)">
            <path d="M210.491,495.896L212.968,495.896C219.328,495.896 224.491,501.06 224.491,507.419L224.491,534.498C224.491,540.858 219.328,546.021 212.968,546.021L210.491,546.021L210.491,495.896Z" style="fill:rgb(134,134,134);"/>
        </g>
        <g id="ComboBox.TextureBackgroundDisabled.Part" transform="matrix(0.525114,0,0,0.580205,-63.3838,150.362)">
            <rect x="341.017" y="562.054" width="219" height="146.5" style="fill:rgb(178,147,0);fill-opacity:0;"/>
            <clipPath id="_clip1">
                <rect x="341.017" y="562.054" width="219" height="146.5"/>
            </clipPath>
            <g clip-path="url(#_clip1)">
                <g id="ComboBox.TextureBackground.Middle" transform="matrix(0.623913,0,0,1,171.216,0)">
                    <rect x="341.017" y="562.054" width="219" height="146.5" style="fill:rgb(178,147,0);fill-opacity:0;"/>
                </g>
            </g>
        </g>
    </g>
    <g id="Combo-Box" serif:id="Combo Box" transform="matrix(1,0,0,1,36,92)">
        <g transform="matrix(0.658976,0,0,0.953939,45.3373,27.0521)">
            <path d="M269.016,492.368C269.016,482.461 257.373,474.418 243.032,474.418L145,474.418C130.659,474.418 119.016,482.461 119.016,492.368L119.016,538.969C119.016,548.875 130.659,556.918 145,556.918L243.032,556.918C257.373,556.918 269.016,548.875 269.016,538.969L269.016,492.368Z" style="fill:rgb(66,54,4);"/>
        </g>
        <path d="M174.416,477.452L174.416,481.918L136.89,481.918L126.223,493.996C125.407,494.92 123.995,495.008 123.071,494.192C122.148,493.376 122.06,491.964 122.876,491.041L134.209,478.207C134.633,477.727 135.242,477.452 135.883,477.452L174.416,477.452Z" style="fill:rgb(165,134,0);"/>
        <g transform="matrix(-1,0,0,1,347.733,0)">
            <path d="M174.416,477.452L174.416,481.918L136.89,481.918L126.223,493.996C125.407,494.92 123.995,495.008 123.071,494.192C122.148,493.376 122.06,491.964 122.876,491.041L134.209,478.207C134.633,477.727 135.242,477.452 135.883,477.452L174.416,477.452Z" style="fill:rgb(165,134,0);"/>
        </g>
        <path d="M174.416,560.749L135.883,560.749C135.243,560.749 134.634,560.475 134.21,559.995L122.876,547.161C122.061,546.238 122.148,544.825 123.072,544.01C123.996,543.194 125.408,543.282 126.224,544.205L136.89,556.284L174.416,556.284L174.416,560.749Z" style="fill:rgb(165,134,0);"/>
        <g transform="matrix(-1,0,0,1,347.733,0)">
            <path d="M174.416,560.749L135.883,560.749C135.243,560.749 134.634,560.475 134.21,559.995L122.876,547.161C122.061,546.238 122.148,544.825 123.072,544.01C123.996,543.194 125.408,543.282 126.224,544.205L136.89,556.284L174.416,556.284L174.416,560.749Z" style="fill:rgb(165,134,0);"/>
        </g>
        <g transform="matrix(-0.860985,0,0,0.860985,312.975,70.7053)">
            <path d="M210.491,495.896L212.968,495.896C219.328,495.896 224.491,501.06 224.491,507.419L224.491,534.498C224.491,540.858 219.328,546.021 212.968,546.021L210.491,546.021L210.491,495.896Z" style="fill:rgb(225,193,0);"/>
        </g>
        <g transform="matrix(0.860985,0,0,0.860985,33.7433,70.7053)">
            <path d="M210.491,495.896L212.968,495.896C219.328,495.896 224.491,501.06 224.491,507.419L224.491,534.498C224.491,540.858 219.328,546.021 212.968,546.021L210.491,546.021L210.491,495.896Z" style="fill:rgb(225,193,0);"/>
        </g>
        <g id="ComboBox.TextureBackground.Part" transform="matrix(0.525114,0,0,0.580205,-63.3838,150.362)">
            <rect x="341.017" y="562.054" width="219" height="146.5" style="fill:rgb(178,147,0);fill-opacity:0;"/>
            <clipPath id="_clip2">
                <rect x="341.017" y="562.054" width="219" height="146.5"/>
            </clipPath>
            <g clip-path="url(#_clip2)">
                <g id="ComboBox.TextureBackground.Middle1" serif:id="ComboBox.TextureBackground.Middle" transform="matrix(0.623913,0,0,1,171.216,0)">
                    <rect x="341.017" y="562.054" width="219" height="146.5" style="fill:rgb(178,147,0);fill-opacity:0;"/>
                </g>
            </g>
        </g>
    </g>
    <g id="Text-Box" serif:id="Text Box" transform="matrix(1,0,0,1,36.0108,-196)">
        <g transform="matrix(0.658976,0,0,0.953939,45.3373,27.0521)">
            <path d="M269.016,492.368C269.016,482.461 257.373,474.418 243.032,474.418L145,474.418C130.659,474.418 119.016,482.461 119.016,492.368L119.016,538.969C119.016,548.875 130.659,556.918 145,556.918L243.032,556.918C257.373,556.918 269.016,548.875 269.016,538.969L269.016,492.368Z"/>
        </g>
        <path d="M174.416,477.452L174.416,481.918L136.89,481.918L126.223,493.996C125.407,494.92 123.995,495.008 123.071,494.192C122.148,493.376 122.06,491.964 122.876,491.041L134.209,478.207C134.633,477.727 135.242,477.452 135.883,477.452L174.416,477.452Z" style="fill:rgb(165,134,0);"/>
        <g transform="matrix(-1,0,0,1,347.733,0)">
            <path d="M174.416,477.452L174.416,481.918L136.89,481.918L126.223,493.996C125.407,494.92 123.995,495.008 123.071,494.192C122.148,493.376 122.06,491.964 122.876,491.041L134.209,478.207C134.633,477.727 135.242,477.452 135.883,477.452L174.416,477.452Z" style="fill:rgb(165,134,0);"/>
        </g>
        <path d="M174.416,560.749L135.883,560.749C135.243,560.749 134.634,560.475 134.21,559.995L122.876,547.161C122.061,546.238 122.148,544.825 123.072,544.01C123.996,543.194 125.408,543.282 126.224,544.205L136.89,556.284L174.416,556.284L174.416,560.749Z" style="fill:rgb(165,134,0);"/>
        <g transform="matrix(-1,0,0,1,347.733,0)">
            <path d="M174.416,560.749L135.883,560.749C135.243,560.749 134.634,560.475 134.21,559.995L122.876,547.161C122.061,546.238 122.148,544.825 123.072,544.01C123.996,543.194 125.408,543.282 126.224,544.205L136.89,556.284L174.416,556.284L174.416,560.749Z" style="fill:rgb(165,134,0);"/>
        </g>
        <g transform="matrix(-0.860985,0,0,0.860985,312.975,70.7053)">
            <path d="M210.491,495.896L212.968,495.896C219.328,495.896 224.491,501.06 224.491,507.419L224.491,534.498C224.491,540.858 219.328,546.021 212.968,546.021L210.491,546.021L210.491,495.896Z" style="fill:rgb(225,193,0);"/>
        </g>
        <g transform="matrix(0.860985,0,0,0.860985,33.7433,70.7053)">
            <path d="M210.491,495.896L212.968,495.896C219.328,495.896 224.491,501.06 224.491,507.419L224.491,534.498C224.491,540.858 219.328,546.021 212.968,546.021L210.491,546.021L210.491,495.896Z" style="fill:rgb(225,193,0);"/>
        </g>
        <g id="TextBox.TextureBackground.Part" transform="matrix(0.525114,0,0,0.587258,-63.3838,145.881)">
            <rect x="341.017" y="562.054" width="219" height="146.5" style="fill:rgb(178,147,0);fill-opacity:0;"/>
            <clipPath id="_clip3">
                <rect x="341.017" y="562.054" width="219" height="146.5"/>
            </clipPath>
            <g clip-path="url(#_clip3)">
                <g id="TextBox.TextureBackground.Middle" transform="matrix(0.626087,0,0,1,169.58,0)">
                    <rect x="341.017" y="562.054" width="219" height="146.5" style="fill:rgb(178,147,0);fill-opacity:0;"/>
                </g>
            </g>
        </g>
    </g>
    <g id="Scroll-Bar-Track" serif:id="Scroll Bar Track" transform="matrix(4,0,0,0.23821,-1956.99,362.671)">
        <path d="M692.667,285.664C692.667,234.691 690.203,193.308 687.167,193.308L676.167,193.308C673.132,193.308 670.667,234.691 670.667,285.664L670.667,736.452C670.667,787.425 673.132,828.808 676.167,828.808L687.167,828.808C690.203,828.808 692.667,787.425 692.667,736.452L692.667,285.664Z"/>
        <clipPath id="_clip4">
            <path d="M692.667,285.664C692.667,234.691 690.203,193.308 687.167,193.308L676.167,193.308C673.132,193.308 670.667,234.691 670.667,285.664L670.667,736.452C670.667,787.425 673.132,828.808 676.167,828.808L687.167,828.808C690.203,828.808 692.667,787.425 692.667,736.452L692.667,285.664Z"/>
        </clipPath>
        <g clip-path="url(#_clip4)">
            <g id="Scrollbar.TextureTrack.Part" transform="matrix(0.115963,0,0,4.69467,629.414,-2471.58)">
                <rect x="341.017" y="562.054" width="219" height="146.5" style="fill:rgb(178,147,0);fill-opacity:0;"/>
                <clipPath id="_clip5">
                    <rect x="341.017" y="562.054" width="219" height="146.5"/>
                </clipPath>
                <g clip-path="url(#_clip5)">
                    <g id="Scrollbar.TextureTrack.Middle" transform="matrix(1,0,0,0.714956,-2.27374e-13,182.834)">
                        <rect x="341.017" y="562.054" width="219" height="146.5" style="fill:rgb(178,147,0);fill-opacity:0;"/>
                    </g>
                </g>
            </g>
        </g>
        <path d="M692.667,285.664C692.667,234.691 690.203,193.308 687.167,193.308L676.167,193.308C673.132,193.308 670.667,234.691 670.667,285.664L670.667,736.452C670.667,787.425 673.132,828.808 676.167,828.808L687.167,828.808C690.203,828.808 692.667,787.425 692.667,736.452L692.667,285.664Z" style="fill:none;stroke:rgb(165,134,0);stroke-width:2.82px;"/>
    </g>
    <g transform="matrix(3.89505,0,0,3.93841,-1935.04,-975.374)">
        <g transform="matrix(0.901786,0,0,1,70.5227,1.375)">
            <path d="M655.686,322.381C655.686,320.658 654.118,319.259 652.186,319.259L645.186,319.259C643.255,319.259 641.686,320.658 641.686,322.381L641.686,384.388C641.686,386.11 643.255,387.509 645.186,387.509L652.186,387.509C654.118,387.509 655.686,386.11 655.686,384.388L655.686,322.381Z" style="fill:rgb(67,54,4);stroke:rgb(101,75,7);stroke-width:3.22px;"/>
        </g>
        <g transform="matrix(0.915617,0,0,0.915617,55.3606,27.2829)">
            <path d="M650.581,326.068C650.263,326.788 649.548,327.26 648.752,327.26C646.191,327.26 646.583,324.868 646.583,324.29C646.583,324.29 646.583,323.446 646.583,323.446C646.583,320.762 648.763,318.582 651.447,318.582C651.447,318.582 659.287,318.582 659.287,318.582C661.972,318.582 664.151,320.762 664.151,323.446C664.151,323.446 664.151,324.29 664.151,324.29C664.151,324.868 664.286,327.575 661.982,327.26C661.192,327.151 660.468,326.786 660.151,326.063L660.151,325.89L660.151,324.029L660.151,323.446C660.151,322.969 659.764,322.582 659.287,322.582L651.447,322.582C650.97,322.582 650.583,322.969 650.583,323.446L650.583,325.89L650.581,324.029L650.581,326.068Z" style="fill:rgb(192,156,0);"/>
        </g>
        <g transform="matrix(0.915617,0,0,-0.915617,55.4717,682.428)">
            <path d="M650.581,326.068C650.263,326.788 649.548,327.26 648.752,327.26C646.191,327.26 646.583,324.868 646.583,324.29C646.583,324.29 646.583,323.446 646.583,323.446C646.583,320.762 648.763,318.582 651.447,318.582C651.447,318.582 659.287,318.582 659.287,318.582C661.972,318.582 664.151,320.762 664.151,323.446C664.151,323.446 664.151,324.29 664.151,324.29C664.151,324.868 664.286,327.575 661.982,327.26C661.192,327.151 660.468,326.786 660.151,326.063L660.151,325.89L660.151,324.029L660.151,323.446C660.151,322.969 659.764,322.582 659.287,322.582L651.447,322.582C650.97,322.582 650.583,322.969 650.583,323.446L650.583,325.89L650.581,324.029L650.581,326.068Z" style="fill:rgb(192,156,0);"/>
        </g>
        <g id="Scrollbar.TextureThumb.Part" transform="matrix(0.0780565,0,0,0.495398,620.672,40.1765)">
            <rect x="341.017" y="562.054" width="219" height="146.5" style="fill:rgb(178,147,0);fill-opacity:0;"/>
            <clipPath id="_clip6">
                <rect x="341.017" y="562.054" width="219" height="146.5"/>
            </clipPath>
            <g clip-path="url(#_clip6)">
                <g id="Scrollbar.TextureThumb.Middle" transform="matrix(1,0,0,0.74344,-2.27374e-13,162.652)">
                    <rect x="341.017" y="562.054" width="219" height="146.5" style="fill:rgb(178,147,0);fill-opacity:0;"/>
                </g>
            </g>
        </g>
    </g>
    <g id="Scrollbar-Arrow-Down" serif:id="Scrollbar Arrow Down" transform="matrix(4,0,0,-4,-2378.99,1262.13)">
        <g transform="matrix(0.955556,0,0,0.981707,30.0958,3.66848)">
            <path d="M693.094,194.279C693.094,191.45 690.735,189.154 687.829,189.154L675.859,189.154C672.954,189.154 670.594,191.45 670.594,194.279L670.594,204.529C670.594,207.357 672.954,209.654 675.859,209.654L687.829,209.654C690.735,209.654 693.094,207.357 693.094,204.529L693.094,194.279Z" style="stroke:rgb(165,134,0);stroke-width:3.1px;"/>
        </g>
        <g transform="matrix(1.64179,0,0,1.05085,-430.838,-9.37644)">
            <path d="M677.636,194.237L681.823,201.612L673.448,201.612L677.636,194.237Z" style="fill:rgb(186,160,0);"/>
        </g>
        <g id="Scrollbar.TextureArrowDown.Part" transform="matrix(0.11406,0,0,-0.161263,630.375,301.779)">
            <rect x="341.017" y="562.054" width="219" height="146.5" style="fill:rgb(178,147,0);fill-opacity:0;"/>
        </g>
        <g id="SpinButton.TextureArrowDown.Part" transform="matrix(0.11406,0,0,-0.161263,630.375,301.779)">
            <rect x="341.017" y="562.054" width="219" height="146.5" style="fill:rgb(178,147,0);fill-opacity:0;"/>
        </g>
    </g>
    <g id="Scrollbar-Arrow-Up" serif:id="Scrollbar Arrow Up" transform="matrix(4,0,0,4,-2379.99,-438.132)">
        <g transform="matrix(0.955556,0,0,0.981707,30.0958,3.66848)">
            <path d="M693.094,194.279C693.094,191.45 690.735,189.154 687.829,189.154L675.859,189.154C672.954,189.154 670.594,191.45 670.594,194.279L670.594,204.529C670.594,207.357 672.954,209.654 675.859,209.654L687.829,209.654C690.735,209.654 693.094,207.357 693.094,204.529L693.094,194.279Z" style="stroke:rgb(165,134,0);stroke-width:3.1px;"/>
        </g>
        <g transform="matrix(1.64179,0,0,1.05085,-430.838,-9.37644)">
            <path d="M677.636,194.237L681.823,201.612L673.448,201.612L677.636,194.237Z" style="fill:rgb(186,160,0);"/>
        </g>
        <g id="Scrollbar.TextureArrowUp.Part" transform="matrix(0.11406,0,0,0.161263,630.313,97.0122)">
            <rect x="341.017" y="562.054" width="219" height="146.5" style="fill:rgb(178,147,0);fill-opacity:0;"/>
        </g>
        <g id="SpinButton.TextureArrowUp.Part" transform="matrix(0.11406,0,0,0.161263,630.313,97.0122)">
            <rect x="341.017" y="562.054" width="219" height="146.5" style="fill:rgb(178,147,0);fill-opacity:0;"/>
        </g>
    </g>
    <g id="Alt-Button" serif:id="Alt Button" transform="matrix(4,0,0,4,190.181,405.502)">
        <g transform="matrix(0.0538062,0,0,1,110.175,-0.0408094)">
            <path d="M751.02,146.082C751.02,142.649 699.22,139.861 635.418,139.861C635.418,139.861 198.386,139.861 198.386,139.861C134.584,139.861 82.784,142.649 82.784,146.082L82.784,167.762C82.784,171.195 134.584,173.982 198.386,173.982C198.386,173.982 635.418,173.982 635.418,173.982C699.22,173.982 751.02,171.195 751.02,167.762C751.02,167.762 751.02,146.082 751.02,146.082ZM680.628,146.082L680.628,167.762C680.628,169.105 660.37,170.195 635.418,170.195L198.386,170.195C173.434,170.195 153.176,169.105 153.176,167.762C153.176,167.762 153.176,146.082 153.176,146.082C153.176,144.739 173.434,143.649 198.386,143.649L635.418,143.649C660.37,143.649 680.628,144.739 680.628,146.082Z" style="fill:rgb(80,83,85);"/>
        </g>
        <g transform="matrix(0.255217,0,0,0.246493,-49.3443,-2.60578)">
            <path d="M680.237,577.639L680.237,716.639L664.096,716.639C651.848,716.639 641.904,706.695 641.904,694.446L641.904,599.831C641.904,587.583 651.848,577.639 664.096,577.639L680.237,577.639Z" style="fill:rgb(135,135,135);"/>
        </g>
        <g id="BitmapButton.TextureDisabled.Part" transform="matrix(0.16895,0,0,0.235495,56.4921,7.27013)">
            <rect x="341.017" y="562.054" width="219" height="146.5" style="fill:rgb(178,147,0);fill-opacity:0;"/>
            <clipPath id="_clip7">
                <rect x="341.017" y="562.054" width="219" height="146.5"/>
            </clipPath>
            <g clip-path="url(#_clip7)">
                <g id="BitmapButton.TextureDisabled.Middle" transform="matrix(0.440043,0,0,1,258.511,-2.13163e-14)">
                    <rect x="341.017" y="562.054" width="219" height="146.5" style="fill:rgb(178,147,0);fill-opacity:0;"/>
                </g>
            </g>
        </g>
        <g transform="matrix(31.5034,0,0,42.8669,142.187,173.954)">
            <path d="M0.273,-0.027C0.273,-0.02 0.268,-0.014 0.258,-0.009C0.248,-0.003 0.24,-0 0.235,-0L0.067,-0C0.06,-0 0.053,-0.002 0.044,-0.007C0.035,-0.011 0.031,-0.017 0.031,-0.025C0.031,-0.031 0.05,-0.046 0.088,-0.07C0.126,-0.094 0.145,-0.133 0.145,-0.187L0.144,-0.631C0.144,-0.667 0.126,-0.697 0.089,-0.721C0.051,-0.744 0.033,-0.76 0.033,-0.767C0.033,-0.776 0.037,-0.784 0.045,-0.789C0.053,-0.794 0.063,-0.796 0.075,-0.796L0.227,-0.796C0.245,-0.796 0.257,-0.794 0.263,-0.789C0.268,-0.784 0.271,-0.779 0.271,-0.772C0.271,-0.761 0.271,-0.74 0.27,-0.711C0.269,-0.681 0.269,-0.656 0.269,-0.635L0.269,-0.193C0.269,-0.146 0.269,-0.111 0.27,-0.09C0.271,-0.069 0.272,-0.048 0.273,-0.027Z" style="fill:rgb(135,135,135);fill-rule:nonzero;"/>
        </g>
    </g>
    <g id="Alt-Button1" serif:id="Alt Button" transform="matrix(4,0,0,4,190.181,257.502)">
        <g transform="matrix(0.0538062,0,0,1,110.175,-0.0408094)">
            <path d="M751.02,146.082C751.02,142.649 699.22,139.861 635.418,139.861C635.418,139.861 198.386,139.861 198.386,139.861C134.584,139.861 82.784,142.649 82.784,146.082L82.784,167.762C82.784,171.195 134.584,173.982 198.386,173.982C198.386,173.982 635.418,173.982 635.418,173.982C699.22,173.982 751.02,171.195 751.02,167.762C751.02,167.762 751.02,146.082 751.02,146.082ZM680.628,146.082L680.628,167.762C680.628,169.105 660.37,170.195 635.418,170.195L198.386,170.195C173.434,170.195 153.176,169.105 153.176,167.762C153.176,167.762 153.176,146.082 153.176,146.082C153.176,144.739 173.434,143.649 198.386,143.649L635.418,143.649C660.37,143.649 680.628,144.739 680.628,146.082Z" style="fill:rgb(255,243,135);"/>
        </g>
        <g transform="matrix(0.255217,0,0,0.246493,-49.3443,-2.60578)">
            <path d="M680.237,577.639L680.237,716.639L664.096,716.639C651.848,716.639 641.904,706.695 641.904,694.446L641.904,599.831C641.904,587.583 651.848,577.639 664.096,577.639L680.237,577.639Z" style="fill:rgb(255,243,135);"/>
        </g>
        <g id="BitmapButton.TextureDown.Part" transform="matrix(0.16895,0,0,0.235495,56.4921,7.27013)">
            <rect x="341.017" y="562.054" width="219" height="146.5" style="fill:rgb(178,147,0);fill-opacity:0;"/>
            <clipPath id="_clip8">
                <rect x="341.017" y="562.054" width="219" height="146.5"/>
            </clipPath>
            <g clip-path="url(#_clip8)">
                <g id="BitmapButton.TextureDown.Middle" transform="matrix(0.440043,0,0,1,258.511,-2.13163e-14)">
                    <rect x="341.017" y="562.054" width="219" height="146.5" style="fill:rgb(178,147,0);fill-opacity:0;"/>
                </g>
            </g>
        </g>
        <g id="BitmapButton.TextureFocused.Part" transform="matrix(0.16895,0,0,0.235495,56.4921,7.27013)">
            <rect x="341.017" y="562.054" width="219" height="146.5" style="fill:rgb(178,147,0);fill-opacity:0;"/>
            <clipPath id="_clip9">
                <rect x="341.017" y="562.054" width="219" height="146.5"/>
            </clipPath>
            <g clip-path="url(#_clip9)">
                <g id="BitmapButton.TextureFocused.Middle" transform="matrix(0.440043,0,0,1,258.511,-2.13163e-14)">
                    <rect x="341.017" y="562.054" width="219" height="146.5" style="fill:rgb(178,147,0);fill-opacity:0;"/>
                </g>
            </g>
        </g>
        <g transform="matrix(31.5034,0,0,42.8669,142.187,173.954)">
            <path d="M0.273,-0.027C0.273,-0.02 0.268,-0.014 0.258,-0.009C0.248,-0.003 0.24,-0 0.235,-0L0.067,-0C0.06,-0 0.053,-0.002 0.044,-0.007C0.035,-0.011 0.031,-0.017 0.031,-0.025C0.031,-0.031 0.05,-0.046 0.088,-0.07C0.126,-0.094 0.145,-0.133 0.145,-0.187L0.144,-0.631C0.144,-0.667 0.126,-0.697 0.089,-0.721C0.051,-0.744 0.033,-0.76 0.033,-0.767C0.033,-0.776 0.037,-0.784 0.045,-0.789C0.053,-0.794 0.063,-0.796 0.075,-0.796L0.227,-0.796C0.245,-0.796 0.257,-0.794 0.263,-0.789C0.268,-0.784 0.271,-0.779 0.271,-0.772C0.271,-0.761 0.271,-0.74 0.27,-0.711C0.269,-0.681 0.269,-0.656 0.269,-0.635L0.269,-0.193C0.269,-0.146 0.269,-0.111 0.27,-0.09C0.271,-0.069 0.272,-0.048 0.273,-0.027Z" style="fill:rgb(255,243,135);fill-rule:nonzero;"/>
        </g>
    </g>
    <g id="Alt-Button2" serif:id="Alt Button" transform="matrix(4,0,0,4,190.181,109.502)">
        <g transform="matrix(0.0538062,0,0,1,110.175,-0.0408094)">
            <path d="M751.02,146.082C751.02,142.649 699.22,139.861 635.418,139.861C635.418,139.861 198.386,139.861 198.386,139.861C134.584,139.861 82.784,142.649 82.784,146.082L82.784,167.762C82.784,171.195 134.584,173.982 198.386,173.982C198.386,173.982 635.418,173.982 635.418,173.982C699.22,173.982 751.02,171.195 751.02,167.762C751.02,167.762 751.02,146.082 751.02,146.082ZM680.628,146.082L680.628,167.762C680.628,169.105 660.37,170.195 635.418,170.195L198.386,170.195C173.434,170.195 153.176,169.105 153.176,167.762C153.176,167.762 153.176,146.082 153.176,146.082C153.176,144.739 173.434,143.649 198.386,143.649L635.418,143.649C660.37,143.649 680.628,144.739 680.628,146.082Z" style="fill:rgb(78,75,27);"/>
        </g>
        <g transform="matrix(0.255217,0,0,0.246493,-49.3443,-2.60578)">
            <path d="M680.237,577.639L680.237,716.639L664.096,716.639C651.848,716.639 641.904,706.695 641.904,694.446L641.904,599.831C641.904,587.583 651.848,577.639 664.096,577.639L680.237,577.639Z" style="fill:rgb(215,185,2);"/>
        </g>
        <g id="BitmapButton.Texture.Part" transform="matrix(0.16895,0,0,0.235495,56.4921,7.27013)">
            <rect x="341.017" y="562.054" width="219" height="146.5" style="fill:rgb(178,147,0);fill-opacity:0;"/>
            <clipPath id="_clip10">
                <rect x="341.017" y="562.054" width="219" height="146.5"/>
            </clipPath>
            <g clip-path="url(#_clip10)">
                <g id="BitmapButton.Texture.Middle" transform="matrix(0.440043,0,0,1,258.511,-2.13163e-14)">
                    <rect x="341.017" y="562.054" width="219" height="146.5" style="fill:rgb(178,147,0);fill-opacity:0;"/>
                </g>
            </g>
        </g>
        <g transform="matrix(31.5034,0,0,42.8669,142.187,173.954)">
            <path d="M0.273,-0.027C0.273,-0.02 0.268,-0.014 0.258,-0.009C0.248,-0.003 0.24,-0 0.235,-0L0.067,-0C0.06,-0 0.053,-0.002 0.044,-0.007C0.035,-0.011 0.031,-0.017 0.031,-0.025C0.031,-0.031 0.05,-0.046 0.088,-0.07C0.126,-0.094 0.145,-0.133 0.145,-0.187L0.144,-0.631C0.144,-0.667 0.126,-0.697 0.089,-0.721C0.051,-0.744 0.033,-0.76 0.033,-0.767C0.033,-0.776 0.037,-0.784 0.045,-0.789C0.053,-0.794 0.063,-0.796 0.075,-0.796L0.227,-0.796C0.245,-0.796 0.257,-0.794 0.263,-0.789C0.268,-0.784 0.271,-0.779 0.271,-0.772C0.271,-0.761 0.271,-0.74 0.27,-0.711C0.269,-0.681 0.269,-0.656 0.269,-0.635L0.269,-0.193C0.269,-0.146 0.269,-0.111 0.27,-0.09C0.271,-0.069 0.272,-0.048 0.273,-0.027Z" style="fill:rgb(215,185,2);fill-rule:nonzero;"/>
        </g>
    </g>
    <g id="Disabled-Button" serif:id="Disabled Button" transform="matrix(4,0,0,4,-1333.7,-2313.03)">
        <g transform="matrix(0.192253,0,0,0.939024,348.975,50.4363)">
            <rect x="432.035" y="820.596" width="156.2" height="32.8" style="stroke:rgb(70,70,70);stroke-width:3.56px;"/>
        </g>
        <g>
            <g transform="matrix(1,0,0,1,0.303387,-0.0766187)">
                <path d="M430.279,837.435C430.273,834.15 430.218,830.596 430.053,830.335C429.483,829.435 428.092,827.564 427.877,827.438C427.591,827.269 424.436,826.518 424.598,826.302C425.376,825.263 428.872,820.88 430.763,820.053C431.917,819.547 433.601,819.792 436.109,819.849C436.946,819.868 437.063,821.9 436.592,822.103C435.151,822.725 433.831,824.605 433.212,825.709C432.97,826.141 433.035,826.687 433.02,827.181C432.926,830.323 433.028,833.467 433.027,836.61C433.027,836.885 433.027,837.16 433.025,837.435L430.279,837.435Z" style="fill:rgb(93,93,93);"/>
            </g>
            <g transform="matrix(1,0,0,-1,0.290755,1672.89)">
                <path d="M430.279,837.435C430.273,834.15 430.218,830.596 430.053,830.335C429.483,829.435 428.092,827.564 427.877,827.438C427.591,827.269 424.436,826.518 424.598,826.302C425.376,825.263 428.872,820.88 430.763,820.053C431.917,819.547 433.601,819.792 436.109,819.849C436.946,819.868 437.063,821.9 436.592,822.103C435.151,822.725 433.831,824.605 433.212,825.709C432.97,826.141 433.035,826.687 433.02,827.181C432.926,830.323 433.028,833.467 433.027,836.61C433.027,836.885 433.027,837.16 433.025,837.435L430.279,837.435Z" style="fill:rgb(93,93,93);"/>
            </g>
            <g transform="matrix(0.350912,0,0,0.348686,349.851,654.724)">
                <path d="M210.491,495.896L212.968,495.896C219.328,495.896 224.491,501.06 224.491,507.419L224.491,534.498C224.491,540.858 219.328,546.021 212.968,546.021L210.491,546.021L210.491,495.896Z" style="fill:rgb(135,135,135);"/>
            </g>
        </g>
        <g transform="matrix(-1,0,0,1,893.949,-0.00683381)">
            <g transform="matrix(1,0,0,1,0.303387,-0.0766187)">
                <path d="M430.279,837.435C430.273,834.15 430.218,830.596 430.053,830.335C429.483,829.435 428.092,827.564 427.877,827.438C427.591,827.269 424.436,826.518 424.598,826.302C425.376,825.263 428.872,820.88 430.763,820.053C431.917,819.547 433.601,819.792 436.109,819.849C436.946,819.868 437.063,821.9 436.592,822.103C435.151,822.725 433.831,824.605 433.212,825.709C432.97,826.141 433.035,826.687 433.02,827.181C432.926,830.323 433.028,833.467 433.027,836.61C433.027,836.885 433.027,837.16 433.025,837.435L430.279,837.435Z" style="fill:rgb(93,93,93);"/>
            </g>
            <g transform="matrix(1,0,0,-1,0.290755,1672.89)">
                <path d="M430.279,837.435C430.273,834.15 430.218,830.596 430.053,830.335C429.483,829.435 428.092,827.564 427.877,827.438C427.591,827.269 424.436,826.518 424.598,826.302C425.376,825.263 428.872,820.88 430.763,820.053C431.917,819.547 433.601,819.792 436.109,819.849C436.946,819.868 437.063,821.9 436.592,822.103C435.151,822.725 433.831,824.605 433.212,825.709C432.97,826.141 433.035,826.687 433.02,827.181C432.926,830.323 433.028,833.467 433.027,836.61C433.027,836.885 433.027,837.16 433.025,837.435L430.279,837.435Z" style="fill:rgb(93,93,93);"/>
            </g>
            <g transform="matrix(0.350912,0,0,0.348686,349.957,654.937)">
                <path d="M210.491,495.896L212.968,495.896C219.328,495.896 224.491,501.06 224.491,507.419L224.491,534.498C224.491,540.858 219.328,546.021 212.968,546.021L210.491,546.021L210.491,495.896Z" style="fill:rgb(135,135,135);"/>
            </g>
        </g>
        <g id="Button.TextureDisabled.Part" transform="matrix(0.223744,0,0,0.234642,346.379,687.389)">
            <rect x="341.017" y="562.054" width="219" height="146.5" style="fill:rgb(178,147,0);fill-opacity:0;"/>
            <g id="Button.TextureDisabled.Middle" transform="matrix(0.387755,0,0,1,275.268,0)">
                <rect x="341.017" y="562.054" width="219" height="146.5" style="fill:rgb(178,147,0);fill-opacity:0;"/>
            </g>
        </g>
    </g>
    <g id="Clicked-Button" serif:id="Clicked Button" transform="matrix(4,0,0,4,-1333.7,-2457.03)">
        <g transform="matrix(0.192253,0,0,0.939024,348.975,50.4363)">
            <rect x="432.035" y="820.596" width="156.2" height="32.8" style="stroke:rgb(255,244,136);stroke-width:3.56px;"/>
        </g>
        <g>
            <g transform="matrix(1,0,0,1,0.303387,-0.0766187)">
                <path d="M430.279,837.435C430.273,834.15 430.218,830.596 430.053,830.335C429.483,829.435 428.092,827.564 427.877,827.438C427.591,827.269 424.436,826.518 424.598,826.302C425.376,825.263 428.872,820.88 430.763,820.053C431.917,819.547 433.601,819.792 436.109,819.849C436.946,819.868 437.063,821.9 436.592,822.103C435.151,822.725 433.831,824.605 433.212,825.709C432.97,826.141 433.035,826.687 433.02,827.181C432.926,830.323 433.028,833.467 433.027,836.61C433.027,836.885 433.027,837.16 433.025,837.435L430.279,837.435Z" style="fill:rgb(255,243,135);"/>
            </g>
            <g transform="matrix(1,0,0,-1,0.290755,1672.89)">
                <path d="M430.279,837.435C430.273,834.15 430.218,830.596 430.053,830.335C429.483,829.435 428.092,827.564 427.877,827.438C427.591,827.269 424.436,826.518 424.598,826.302C425.376,825.263 428.872,820.88 430.763,820.053C431.917,819.547 433.601,819.792 436.109,819.849C436.946,819.868 437.063,821.9 436.592,822.103C435.151,822.725 433.831,824.605 433.212,825.709C432.97,826.141 433.035,826.687 433.02,827.181C432.926,830.323 433.028,833.467 433.027,836.61C433.027,836.885 433.027,837.16 433.025,837.435L430.279,837.435Z" style="fill:rgb(255,243,135);"/>
            </g>
            <g transform="matrix(0.350912,0,0,0.348686,349.851,654.724)">
                <path d="M210.491,495.896L212.968,495.896C219.328,495.896 224.491,501.06 224.491,507.419L224.491,534.498C224.491,540.858 219.328,546.021 212.968,546.021L210.491,546.021L210.491,495.896Z" style="fill:rgb(255,243,135);"/>
            </g>
        </g>
        <g transform="matrix(-1,0,0,1,893.949,-0.00683381)">
            <g transform="matrix(1,0,0,1,0.303387,-0.0766187)">
                <path d="M430.279,837.435C430.273,834.15 430.218,830.596 430.053,830.335C429.483,829.435 428.092,827.564 427.877,827.438C427.591,827.269 424.436,826.518 424.598,826.302C425.376,825.263 428.872,820.88 430.763,820.053C431.917,819.547 433.601,819.792 436.109,819.849C436.946,819.868 437.063,821.9 436.592,822.103C435.151,822.725 433.831,824.605 433.212,825.709C432.97,826.141 433.035,826.687 433.02,827.181C432.926,830.323 433.028,833.467 433.027,836.61C433.027,836.885 433.027,837.16 433.025,837.435L430.279,837.435Z" style="fill:rgb(255,243,135);"/>
            </g>
            <g transform="matrix(1,0,0,-1,0.290755,1672.89)">
                <path d="M430.279,837.435C430.273,834.15 430.218,830.596 430.053,830.335C429.483,829.435 428.092,827.564 427.877,827.438C427.591,827.269 424.436,826.518 424.598,826.302C425.376,825.263 428.872,820.88 430.763,820.053C431.917,819.547 433.601,819.792 436.109,819.849C436.946,819.868 437.063,821.9 436.592,822.103C435.151,822.725 433.831,824.605 433.212,825.709C432.97,826.141 433.035,826.687 433.02,827.181C432.926,830.323 433.028,833.467 433.027,836.61C433.027,836.885 433.027,837.16 433.025,837.435L430.279,837.435Z" style="fill:rgb(255,243,135);"/>
            </g>
            <g transform="matrix(0.350912,0,0,0.348686,349.957,654.937)">
                <path d="M210.491,495.896L212.968,495.896C219.328,495.896 224.491,501.06 224.491,507.419L224.491,534.498C224.491,540.858 219.328,546.021 212.968,546.021L210.491,546.021L210.491,495.896Z" style="fill:rgb(255,243,135);"/>
            </g>
        </g>
        <g id="Button.TextureDown.Part" transform="matrix(0.223744,0,0,0.234642,346.379,687.389)">
            <rect x="341.017" y="562.054" width="219" height="146.5" style="fill:rgb(178,147,0);fill-opacity:0;"/>
            <g id="Button.TextureDown.Middle" transform="matrix(0.387755,0,0,1,275.268,0)">
                <rect x="341.017" y="562.054" width="219" height="146.5" style="fill:rgb(178,147,0);fill-opacity:0;"/>
            </g>
        </g>
    </g>
    <g id="Focused-Button" serif:id="Focused Button" transform="matrix(4,0,0,4,-1333.7,-2601.03)">
        <g transform="matrix(0.192253,0,0,0.939024,348.975,50.4363)">
            <rect x="432.035" y="820.596" width="156.2" height="32.8" style="stroke:rgb(255,244,136);stroke-width:3.56px;"/>
        </g>
        <g>
            <g transform="matrix(1,0,0,1,0.303387,-0.0766187)">
                <path d="M430.279,837.435C430.273,834.15 430.218,830.596 430.053,830.335C429.483,829.435 428.092,827.564 427.877,827.438C427.591,827.269 424.436,826.518 424.598,826.302C425.376,825.263 428.872,820.88 430.763,820.053C431.917,819.547 433.601,819.792 436.109,819.849C436.946,819.868 437.063,821.9 436.592,822.103C435.151,822.725 433.831,824.605 433.212,825.709C432.97,826.141 433.035,826.687 433.02,827.181C432.926,830.323 433.028,833.467 433.027,836.61C433.027,836.885 433.027,837.16 433.025,837.435L430.279,837.435Z" style="fill:rgb(255,243,135);"/>
            </g>
            <g transform="matrix(1,0,0,-1,0.290755,1672.89)">
                <path d="M430.279,837.435C430.273,834.15 430.218,830.596 430.053,830.335C429.483,829.435 428.092,827.564 427.877,827.438C427.591,827.269 424.436,826.518 424.598,826.302C425.376,825.263 428.872,820.88 430.763,820.053C431.917,819.547 433.601,819.792 436.109,819.849C436.946,819.868 437.063,821.9 436.592,822.103C435.151,822.725 433.831,824.605 433.212,825.709C432.97,826.141 433.035,826.687 433.02,827.181C432.926,830.323 433.028,833.467 433.027,836.61C433.027,836.885 433.027,837.16 433.025,837.435L430.279,837.435Z" style="fill:rgb(255,243,135);"/>
            </g>
            <g transform="matrix(0.350912,0,0,0.348686,349.851,654.724)">
                <path d="M210.491,495.896L212.968,495.896C219.328,495.896 224.491,501.06 224.491,507.419L224.491,534.498C224.491,540.858 219.328,546.021 212.968,546.021L210.491,546.021L210.491,495.896Z" style="fill:rgb(252,229,0);"/>
            </g>
        </g>
        <g transform="matrix(-1,0,0,1,893.949,-0.00683381)">
            <g transform="matrix(1,0,0,1,0.303387,-0.0766187)">
                <path d="M430.279,837.435C430.273,834.15 430.218,830.596 430.053,830.335C429.483,829.435 428.092,827.564 427.877,827.438C427.591,827.269 424.436,826.518 424.598,826.302C425.376,825.263 428.872,820.88 430.763,820.053C431.917,819.547 433.601,819.792 436.109,819.849C436.946,819.868 437.063,821.9 436.592,822.103C435.151,822.725 433.831,824.605 433.212,825.709C432.97,826.141 433.035,826.687 433.02,827.181C432.926,830.323 433.028,833.467 433.027,836.61C433.027,836.885 433.027,837.16 433.025,837.435L430.279,837.435Z" style="fill:rgb(255,243,135);"/>
            </g>
            <g transform="matrix(1,0,0,-1,0.290755,1672.89)">
                <path d="M430.279,837.435C430.273,834.15 430.218,830.596 430.053,830.335C429.483,829.435 428.092,827.564 427.877,827.438C427.591,827.269 424.436,826.518 424.598,826.302C425.376,825.263 428.872,820.88 430.763,820.053C431.917,819.547 433.601,819.792 436.109,819.849C436.946,819.868 437.063,821.9 436.592,822.103C435.151,822.725 433.831,824.605 433.212,825.709C432.97,826.141 433.035,826.687 433.02,827.181C432.926,830.323 433.028,833.467 433.027,836.61C433.027,836.885 433.027,837.16 433.025,837.435L430.279,837.435Z" style="fill:rgb(255,243,135);"/>
            </g>
            <g transform="matrix(0.350912,0,0,0.348686,349.957,654.937)">
                <path d="M210.491,495.896L212.968,495.896C219.328,495.896 224.491,501.06 224.491,507.419L224.491,534.498C224.491,540.858 219.328,546.021 212.968,546.021L210.491,546.021L210.491,495.896Z" style="fill:rgb(252,229,0);"/>
            </g>
        </g>
        <g id="Button.TextureFocused.Part" transform="matrix(0.223744,0,0,0.234642,346.379,687.389)">
            <rect x="341.017" y="562.054" width="219" height="146.5" style="fill:rgb(178,147,0);fill-opacity:0;"/>
            <g id="Button.TextureFocused.Middle" transform="matrix(0.387755,0,0,1,275.268,0)">
                <rect x="341.017" y="562.054" width="219" height="146.5" style="fill:rgb(178,147,0);fill-opacity:0;"/>
            </g>
        </g>
    </g>
    <g id="Normal-Button" serif:id="Normal Button" transform="matrix(4,0,0,4,-1333.7,-2745.03)">
        <g transform="matrix(0.192253,0,0,0.939024,348.975,50.4363)">
            <rect x="432.035" y="820.596" width="156.2" height="32.8" style="stroke:rgb(88,72,20);stroke-width:3.56px;"/>
        </g>
        <g>
            <g transform="matrix(1,0,0,1,0.303387,-0.0766187)">
                <path d="M430.279,837.435C430.273,834.15 430.218,830.596 430.053,830.335C429.483,829.435 428.092,827.564 427.877,827.438C427.591,827.269 424.436,826.518 424.598,826.302C425.376,825.263 428.872,820.88 430.763,820.053C431.917,819.547 433.601,819.792 436.109,819.849C436.946,819.868 437.063,821.9 436.592,822.103C435.151,822.725 433.831,824.605 433.212,825.709C432.97,826.141 433.035,826.687 433.02,827.181C432.926,830.323 433.028,833.467 433.027,836.61C433.027,836.885 433.027,837.16 433.025,837.435L430.279,837.435Z" style="fill:rgb(178,147,0);"/>
            </g>
            <g transform="matrix(1,0,0,-1,0.290755,1672.89)">
                <path d="M430.279,837.435C430.273,834.15 430.218,830.596 430.053,830.335C429.483,829.435 428.092,827.564 427.877,827.438C427.591,827.269 424.436,826.518 424.598,826.302C425.376,825.263 428.872,820.88 430.763,820.053C431.917,819.547 433.601,819.792 436.109,819.849C436.946,819.868 437.063,821.9 436.592,822.103C435.151,822.725 433.831,824.605 433.212,825.709C432.97,826.141 433.035,826.687 433.02,827.181C432.926,830.323 433.028,833.467 433.027,836.61C433.027,836.885 433.027,837.16 433.025,837.435L430.279,837.435Z" style="fill:rgb(178,147,0);"/>
            </g>
            <g transform="matrix(0.350912,0,0,0.348686,349.851,654.724)">
                <path d="M210.491,495.896L212.968,495.896C219.328,495.896 224.491,501.06 224.491,507.419L224.491,534.498C224.491,540.858 219.328,546.021 212.968,546.021L210.491,546.021L210.491,495.896Z" style="fill:rgb(252,229,0);"/>
            </g>
        </g>
        <g transform="matrix(-1,0,0,1,893.949,-0.00683381)">
            <g transform="matrix(1,0,0,1,0.303387,-0.0766187)">
                <path d="M430.279,837.435C430.273,834.15 430.218,830.596 430.053,830.335C429.483,829.435 428.092,827.564 427.877,827.438C427.591,827.269 424.436,826.518 424.598,826.302C425.376,825.263 428.872,820.88 430.763,820.053C431.917,819.547 433.601,819.792 436.109,819.849C436.946,819.868 437.063,821.9 436.592,822.103C435.151,822.725 433.831,824.605 433.212,825.709C432.97,826.141 433.035,826.687 433.02,827.181C432.926,830.323 433.028,833.467 433.027,836.61C433.027,836.885 433.027,837.16 433.025,837.435L430.279,837.435Z" style="fill:rgb(178,147,0);"/>
            </g>
            <g transform="matrix(1,0,0,-1,0.290755,1672.89)">
                <path d="M430.279,837.435C430.273,834.15 430.218,830.596 430.053,830.335C429.483,829.435 428.092,827.564 427.877,827.438C427.591,827.269 424.436,826.518 424.598,826.302C425.376,825.263 428.872,820.88 430.763,820.053C431.917,819.547 433.601,819.792 436.109,819.849C436.946,819.868 437.063,821.9 436.592,822.103C435.151,822.725 433.831,824.605 433.212,825.709C432.97,826.141 433.035,826.687 433.02,827.181C432.926,830.323 433.028,833.467 433.027,836.61C433.027,836.885 433.027,837.16 433.025,837.435L430.279,837.435Z" style="fill:rgb(178,147,0);"/>
            </g>
            <g transform="matrix(0.350912,0,0,0.348686,349.957,654.937)">
                <path d="M210.491,495.896L212.968,495.896C219.328,495.896 224.491,501.06 224.491,507.419L224.491,534.498C224.491,540.858 219.328,546.021 212.968,546.021L210.491,546.021L210.491,495.896Z" style="fill:rgb(252,229,0);"/>
            </g>
        </g>
        <g id="Button.Texture.Part" transform="matrix(0.223744,0,0,0.234642,346.379,687.389)">
            <rect x="341.017" y="562.054" width="219" height="146.5" style="fill:rgb(178,147,0);fill-opacity:0;"/>
            <g id="Button.Texture.Middle" transform="matrix(0.387755,0,0,1,275.268,0)">
                <rect x="341.017" y="562.054" width="219" height="146.5" style="fill:rgb(178,147,0);fill-opacity:0;"/>
            </g>
        </g>
    </g>
    <g id="Slider" transform="matrix(4,0,0,4,-813.459,-2354.84)">
        <g transform="matrix(0.192253,0,0,0.939024,348.975,50.4363)">
            <rect x="432.035" y="820.596" width="156.2" height="32.8"/>
        </g>
        <g transform="matrix(0.253222,0,0,0.252019,200.098,586.64)">
            <rect x="1012.39" y="933.612" width="19.7" height="115.2" style="fill:rgb(66,54,4);"/>
        </g>
        <g transform="matrix(0.192253,0,0,0.939024,348.975,50.4363)">
            <rect x="432.035" y="820.596" width="156.2" height="32.8" style="fill:none;stroke:rgb(88,72,20);stroke-width:3.56px;"/>
        </g>
        <g>
            <g transform="matrix(1,0,0,1,0.303387,-0.0766187)">
                <path d="M430.279,837.435C430.273,834.15 430.218,830.596 430.053,830.335C429.483,829.435 428.092,827.564 427.877,827.438C427.591,827.269 424.436,826.518 424.598,826.302C425.376,825.263 428.872,820.88 430.763,820.053C431.917,819.547 433.601,819.792 436.109,819.849C436.946,819.868 437.063,821.9 436.592,822.103C435.151,822.725 433.831,824.605 433.212,825.709C432.97,826.141 433.035,826.687 433.02,827.181C432.926,830.323 433.028,833.467 433.027,836.61C433.027,836.885 433.027,837.16 433.025,837.435L430.279,837.435Z" style="fill:rgb(178,147,0);"/>
            </g>
            <g transform="matrix(1,0,0,-1,0.290755,1672.89)">
                <path d="M430.279,837.435C430.273,834.15 430.218,830.596 430.053,830.335C429.483,829.435 428.092,827.564 427.877,827.438C427.591,827.269 424.436,826.518 424.598,826.302C425.376,825.263 428.872,820.88 430.763,820.053C431.917,819.547 433.601,819.792 436.109,819.849C436.946,819.868 437.063,821.9 436.592,822.103C435.151,822.725 433.831,824.605 433.212,825.709C432.97,826.141 433.035,826.687 433.02,827.181C432.926,830.323 433.028,833.467 433.027,836.61C433.027,836.885 433.027,837.16 433.025,837.435L430.279,837.435Z" style="fill:rgb(178,147,0);"/>
            </g>
            <g transform="matrix(0.350912,0,0,0.348686,349.851,654.724)">
                <path d="M210.491,495.896L212.968,495.896C219.328,495.896 224.491,501.06 224.491,507.419L224.491,534.498C224.491,540.858 219.328,546.021 212.968,546.021L210.491,546.021L210.491,495.896Z" style="fill:rgb(252,229,0);"/>
            </g>
        </g>
        <g transform="matrix(-1,0,0,1,893.949,-0.00683381)">
            <g transform="matrix(1,0,0,1,0.303387,-0.0766187)">
                <path d="M430.279,837.435C430.273,834.15 430.218,830.596 430.053,830.335C429.483,829.435 428.092,827.564 427.877,827.438C427.591,827.269 424.436,826.518 424.598,826.302C425.376,825.263 428.872,820.88 430.763,820.053C431.917,819.547 433.601,819.792 436.109,819.849C436.946,819.868 437.063,821.9 436.592,822.103C435.151,822.725 433.831,824.605 433.212,825.709C432.97,826.141 433.035,826.687 433.02,827.181C432.926,830.323 433.028,833.467 433.027,836.61C433.027,836.885 433.027,837.16 433.025,837.435L430.279,837.435Z" style="fill:rgb(178,147,0);"/>
            </g>
            <g transform="matrix(1,0,0,-1,0.290755,1672.89)">
                <path d="M430.279,837.435C430.273,834.15 430.218,830.596 430.053,830.335C429.483,829.435 428.092,827.564 427.877,827.438C427.591,827.269 424.436,826.518 424.598,826.302C425.376,825.263 428.872,820.88 430.763,820.053C431.917,819.547 433.601,819.792 436.109,819.849C436.946,819.868 437.063,821.9 436.592,822.103C435.151,822.725 433.831,824.605 433.212,825.709C432.97,826.141 433.035,826.687 433.02,827.181C432.926,830.323 433.028,833.467 433.027,836.61C433.027,836.885 433.027,837.16 433.025,837.435L430.279,837.435Z" style="fill:rgb(178,147,0);"/>
            </g>
            <g transform="matrix(0.350912,0,0,0.348686,349.957,654.937)">
                <path d="M210.491,495.896L212.968,495.896C219.328,495.896 224.491,501.06 224.491,507.419L224.491,534.498C224.491,540.858 219.328,546.021 212.968,546.021L210.491,546.021L210.491,495.896Z" style="fill:rgb(252,229,0);"/>
            </g>
        </g>
        <g transform="matrix(0.452381,0,0,0.70384,-7.47944,131.639)">
            <path d="M1025.56,981.138L1025.76,1021.47L983.757,1021.47L1025.56,981.138Z" style="fill:rgb(66,54,4);"/>
        </g>
        <g id="Slider.TextureTrack.Part" transform="matrix(0.223744,0,0,0.234642,346.379,687.389)">
            <rect x="341.017" y="562.054" width="219" height="146.5" style="fill:rgb(178,147,0);fill-opacity:0;"/>
            <clipPath id="_clip11">
                <rect x="341.017" y="562.054" width="219" height="146.5"/>
            </clipPath>
            <g clip-path="url(#_clip11)">
                <g id="Slider.TextureTrack.Middle" transform="matrix(0.387755,0,0,1,275.268,0)">
                    <rect x="341.017" y="562.054" width="219" height="146.5" style="fill:rgb(178,147,0);fill-opacity:0;"/>
                </g>
            </g>
        </g>
    </g>
    <g id="Slider-Thumb" serif:id="Slider Thumb" transform="matrix(4.30997,0,0,4.68446,-3799.63,-4190.28)">
        <path d="M1145.28,1097.93C1145.28,1097.25 1144.67,1096.7 1143.93,1096.7L1141.26,1096.7C1140.52,1096.7 1139.91,1097.25 1139.91,1097.93L1139.91,1115.31C1139.91,1115.99 1140.52,1116.54 1141.26,1116.54L1143.93,1116.54C1144.67,1116.54 1145.28,1115.99 1145.28,1115.31L1145.28,1097.93Z" style="fill:none;"/>
        <clipPath id="_clip12">
            <path d="M1145.28,1097.93C1145.28,1097.25 1144.67,1096.7 1143.93,1096.7L1141.26,1096.7C1140.52,1096.7 1139.91,1097.25 1139.91,1097.93L1139.91,1115.31C1139.91,1115.99 1140.52,1116.54 1141.26,1116.54L1143.93,1116.54C1144.67,1116.54 1145.28,1115.99 1145.28,1115.31L1145.28,1097.93Z"/>
        </clipPath>
        <g clip-path="url(#_clip12)">
            <g id="Slider.TextureThumb.Part" transform="matrix(0.452142,0,0,0.706223,655.986,439.909)">
                <rect x="1066.48" y="927.426" width="19.5" height="33.25" style="fill:none;"/>
            </g>
        </g>
        <path d="M1147.13,1097.93C1147.13,1096.31 1145.7,1094.99 1143.93,1094.99C1143.93,1094.99 1141.26,1094.99 1141.26,1094.99C1139.49,1094.99 1138.06,1096.31 1138.06,1097.93L1138.06,1115.31C1138.06,1116.93 1139.49,1118.25 1141.26,1118.25L1143.93,1118.25C1145.7,1118.25 1147.13,1116.93 1147.13,1115.31C1147.13,1115.31 1147.13,1097.93 1147.13,1097.93ZM1145.28,1097.93C1145.28,1097.25 1144.67,1096.7 1143.93,1096.7L1141.26,1096.7C1140.52,1096.7 1139.91,1097.25 1139.91,1097.93L1139.91,1115.31C1139.91,1115.99 1140.52,1116.54 1141.26,1116.54L1143.93,1116.54C1144.67,1116.54 1145.28,1115.99 1145.28,1115.31L1145.28,1097.93Z" style="fill:rgb(225,193,0);"/>
    </g>
    <g id="Unchecked-Disabled-Checkbox" serif:id="Unchecked Disabled Checkbox" transform="matrix(1,0,0,1,-94,281.5)">
        <g transform="matrix(1,0,0,1,5,111.5)">
            <path d="M118.949,382.731C120.165,374.469 127.291,368.118 135.889,368.118L200.489,368.118C209.106,368.118 216.245,374.497 217.437,382.788C211.146,383.944 206.373,389.462 206.373,396.086L206.373,419.4C206.373,425.994 211.103,431.492 217.352,432.682C215.938,440.711 208.921,446.818 200.489,446.818L135.889,446.818C127.478,446.818 120.475,440.741 119.036,432.741C125.449,431.683 130.345,426.109 130.345,419.4C130.345,419.4 130.345,396.086 130.345,396.086C130.345,389.346 125.404,383.752 118.949,382.731ZM168.189,375.918C150.776,375.918 136.639,390.056 136.639,407.468C136.639,424.881 150.776,439.018 168.189,439.018C185.602,439.018 199.739,424.881 199.739,407.468C199.739,390.056 185.602,375.918 168.189,375.918ZM118.766,386.355C123.313,387.259 126.745,391.275 126.745,396.086L126.745,419.4C126.745,424.211 123.313,428.227 118.766,429.131L118.766,386.355ZM217.612,386.429L217.612,429.057C213.235,428.025 209.973,424.091 209.973,419.4L209.973,396.086C209.973,391.395 213.235,387.461 217.612,386.429Z" style="fill:rgb(92,92,92);"/>
        </g>
        <g transform="matrix(0.860985,0,0,0.860985,-61.5385,70.7053)">
            <path d="M210.491,495.896L212.968,495.896C219.328,495.896 224.491,501.06 224.491,507.419L224.491,534.498C224.491,540.858 219.328,546.021 212.968,546.021L210.491,546.021L210.491,495.896Z" style="fill:rgb(134,134,134);"/>
        </g>
        <g transform="matrix(-0.860985,0,0,0.860985,408.257,70.7053)">
            <path d="M210.491,495.896L212.968,495.896C219.328,495.896 224.491,501.06 224.491,507.419L224.491,534.498C224.491,540.858 219.328,546.021 212.968,546.021L210.491,546.021L210.491,495.896Z" style="fill:rgb(134,134,134);"/>
        </g>
        <g id="CheckBox.TextureUncheckedDisabled.Part" transform="matrix(0.525114,0,0,0.587258,-63.3838,145.881)">
            <rect x="341.017" y="562.054" width="219" height="146.5" style="fill:rgb(178,147,0);fill-opacity:0;"/>
        </g>
    </g>
    <g id="Unchecked-Focused-Checkbox" serif:id="Unchecked Focused Checkbox" transform="matrix(1,0,0,1,-94,185.5)">
        <g transform="matrix(1,0,0,1,5,111.5)">
            <path d="M118.949,382.731C120.165,374.469 127.291,368.118 135.889,368.118L200.489,368.118C209.106,368.118 216.245,374.497 217.437,382.788C211.146,383.944 206.373,389.462 206.373,396.086L206.373,419.4C206.373,425.994 211.103,431.492 217.352,432.682C215.938,440.711 208.921,446.818 200.489,446.818L135.889,446.818C127.478,446.818 120.475,440.741 119.036,432.741C125.449,431.683 130.345,426.109 130.345,419.4C130.345,419.4 130.345,396.086 130.345,396.086C130.345,389.346 125.404,383.752 118.949,382.731ZM168.189,375.918C150.776,375.918 136.639,390.056 136.639,407.468C136.639,424.881 150.776,439.018 168.189,439.018C185.602,439.018 199.739,424.881 199.739,407.468C199.739,390.056 185.602,375.918 168.189,375.918ZM118.766,386.355C123.313,387.259 126.745,391.275 126.745,396.086L126.745,419.4C126.745,424.211 123.313,428.227 118.766,429.131L118.766,386.355ZM217.612,386.429L217.612,429.057C213.235,428.025 209.973,424.091 209.973,419.4L209.973,396.086C209.973,391.395 213.235,387.461 217.612,386.429Z" style="fill:rgb(255,243,135);"/>
        </g>
        <g transform="matrix(0.860985,0,0,0.860985,-61.5385,70.7053)">
            <path d="M210.491,495.896L212.968,495.896C219.328,495.896 224.491,501.06 224.491,507.419L224.491,534.498C224.491,540.858 219.328,546.021 212.968,546.021L210.491,546.021L210.491,495.896Z" style="fill:rgb(225,193,0);"/>
        </g>
        <g transform="matrix(-0.860985,0,0,0.860985,408.257,70.7053)">
            <path d="M210.491,495.896L212.968,495.896C219.328,495.896 224.491,501.06 224.491,507.419L224.491,534.498C224.491,540.858 219.328,546.021 212.968,546.021L210.491,546.021L210.491,495.896Z" style="fill:rgb(225,193,0);"/>
        </g>
        <g id="CheckBox.TextureUncheckedFocused.Part" transform="matrix(0.525114,0,0,0.587258,-63.3838,145.881)">
            <rect x="341.017" y="562.054" width="219" height="146.5" style="fill:rgb(178,147,0);fill-opacity:0;"/>
        </g>
    </g>
    <g id="Unchecked-Checkbox" serif:id="Unchecked Checkbox" transform="matrix(1,0,0,1,-94,89.5)">
        <g transform="matrix(1,0,0,1,5,111.5)">
            <path d="M118.949,382.731C120.165,374.469 127.291,368.118 135.889,368.118L200.489,368.118C209.106,368.118 216.245,374.497 217.437,382.788C211.146,383.944 206.373,389.462 206.373,396.086L206.373,419.4C206.373,425.994 211.103,431.492 217.352,432.682C215.938,440.711 208.921,446.818 200.489,446.818L135.889,446.818C127.478,446.818 120.475,440.741 119.036,432.741C125.449,431.683 130.345,426.109 130.345,419.4C130.345,419.4 130.345,396.086 130.345,396.086C130.345,389.346 125.404,383.752 118.949,382.731ZM168.189,375.918C150.776,375.918 136.639,390.056 136.639,407.468C136.639,424.881 150.776,439.018 168.189,439.018C185.602,439.018 199.739,424.881 199.739,407.468C199.739,390.056 185.602,375.918 168.189,375.918ZM118.766,386.355C123.313,387.259 126.745,391.275 126.745,396.086L126.745,419.4C126.745,424.211 123.313,428.227 118.766,429.131L118.766,386.355ZM217.612,386.429L217.612,429.057C213.235,428.025 209.973,424.091 209.973,419.4L209.973,396.086C209.973,391.395 213.235,387.461 217.612,386.429Z" style="fill:rgb(165,134,0);"/>
        </g>
        <g transform="matrix(0.860985,0,0,0.860985,-61.5385,70.7053)">
            <path d="M210.491,495.896L212.968,495.896C219.328,495.896 224.491,501.06 224.491,507.419L224.491,534.498C224.491,540.858 219.328,546.021 212.968,546.021L210.491,546.021L210.491,495.896Z" style="fill:rgb(225,193,0);"/>
        </g>
        <g transform="matrix(-0.860985,0,0,0.860985,408.257,70.7053)">
            <path d="M210.491,495.896L212.968,495.896C219.328,495.896 224.491,501.06 224.491,507.419L224.491,534.498C224.491,540.858 219.328,546.021 212.968,546.021L210.491,546.021L210.491,495.896Z" style="fill:rgb(225,193,0);"/>
        </g>
        <g id="CheckBox.TextureUnchecked.Part" transform="matrix(0.525114,0,0,0.587258,-63.3838,145.881)">
            <rect x="341.017" y="562.054" width="219" height="146.5" style="fill:rgb(178,147,0);fill-opacity:0;"/>
        </g>
    </g>
    <g id="Disabled-Checked-Checkbox" serif:id="Disabled Checked Checkbox" transform="matrix(1,0,0,1,-94,-6.5)">
        <g transform="matrix(1,0,0,1,5,166.5)">
            <path d="M118.949,327.731C120.165,319.469 127.291,313.118 135.889,313.118L200.489,313.118C209.106,313.118 216.245,319.497 217.437,327.788C211.146,328.944 206.373,334.462 206.373,341.086L206.373,364.4C206.373,370.994 211.103,376.492 217.352,377.682C215.938,385.711 208.921,391.818 200.489,391.818L135.889,391.818C127.478,391.818 120.475,385.741 119.036,377.741C125.449,376.683 130.345,371.109 130.345,364.4C130.345,364.4 130.345,341.086 130.345,341.086C130.345,334.346 125.404,328.752 118.949,327.731ZM168.189,320.918C150.776,320.918 136.639,335.056 136.639,352.468C136.639,369.881 150.776,384.018 168.189,384.018C185.602,384.018 199.739,369.881 199.739,352.468C199.739,335.056 185.602,320.918 168.189,320.918ZM168.189,325.718C182.953,325.718 194.939,337.705 194.939,352.468C194.939,367.232 182.953,379.218 168.189,379.218C153.425,379.218 141.439,367.232 141.439,352.468C141.439,337.705 153.425,325.718 168.189,325.718ZM118.766,331.355C123.313,332.259 126.745,336.275 126.745,341.086L126.745,364.4C126.745,369.211 123.313,373.227 118.766,374.131L118.766,331.355ZM217.612,331.429L217.612,374.057C213.235,373.025 209.973,369.091 209.973,364.4L209.973,341.086C209.973,336.395 213.235,332.461 217.612,331.429ZM168.189,335.718C177.434,335.718 184.939,343.224 184.939,352.468C184.939,361.713 177.434,369.218 168.189,369.218C158.945,369.218 151.439,361.713 151.439,352.468C151.439,343.224 158.945,335.718 168.189,335.718Z" style="fill:rgb(92,92,92);"/>
        </g>
        <g transform="matrix(0.860985,0,0,0.860985,-61.5385,70.7053)">
            <path d="M210.491,495.896L212.968,495.896C219.328,495.896 224.491,501.06 224.491,507.419L224.491,534.498C224.491,540.858 219.328,546.021 212.968,546.021L210.491,546.021L210.491,495.896Z" style="fill:rgb(134,134,134);"/>
        </g>
        <g transform="matrix(-0.860985,0,0,0.860985,408.257,70.7053)">
            <path d="M210.491,495.896L212.968,495.896C219.328,495.896 224.491,501.06 224.491,507.419L224.491,534.498C224.491,540.858 219.328,546.021 212.968,546.021L210.491,546.021L210.491,495.896Z" style="fill:rgb(134,134,134);"/>
        </g>
        <g transform="matrix(1,0,0,1,5,166.5)">
            <path d="M168.189,325.718C182.953,325.718 194.939,337.705 194.939,352.468C194.939,367.232 182.953,379.218 168.189,379.218C153.425,379.218 141.439,367.232 141.439,352.468C141.439,337.705 153.425,325.718 168.189,325.718ZM168.189,335.718C177.434,335.718 184.939,343.224 184.939,352.468C184.939,361.713 177.434,369.218 168.189,369.218C158.945,369.218 151.439,361.713 151.439,352.468C151.439,343.224 158.945,335.718 168.189,335.718Z" style="fill:rgb(134,134,134);"/>
        </g>
        <g id="CheckBox.TextureCheckedDisabled.Part" transform="matrix(0.525114,0,0,0.587258,-63.3838,145.881)">
            <rect x="341.017" y="562.054" width="219" height="146.5" style="fill:rgb(178,147,0);fill-opacity:0;"/>
        </g>
    </g>
    <g id="Focused-Checked-Checkbox" serif:id="Focused Checked Checkbox" transform="matrix(1,0,0,1,-94,-102.5)">
        <g transform="matrix(1,0,0,1,5,127.5)">
            <path d="M118.949,366.731C120.165,358.469 127.291,352.118 135.889,352.118L200.489,352.118C209.106,352.118 216.245,358.497 217.437,366.788C211.146,367.944 206.373,373.462 206.373,380.086L206.373,403.4C206.373,409.994 211.103,415.492 217.352,416.682C215.938,424.711 208.921,430.818 200.489,430.818L135.889,430.818C127.478,430.818 120.475,424.741 119.036,416.741C125.449,415.683 130.345,410.109 130.345,403.4C130.345,403.4 130.345,380.086 130.345,380.086C130.345,373.346 125.404,367.752 118.949,366.731ZM168.189,359.918C150.776,359.918 136.639,374.056 136.639,391.468C136.639,408.881 150.776,423.018 168.189,423.018C185.602,423.018 199.739,408.881 199.739,391.468C199.739,374.056 185.602,359.918 168.189,359.918ZM168.189,364.718C182.953,364.718 194.939,376.705 194.939,391.468C194.939,406.232 182.953,418.218 168.189,418.218C153.425,418.218 141.439,406.232 141.439,391.468C141.439,376.705 153.425,364.718 168.189,364.718ZM118.766,370.355C123.313,371.259 126.745,375.275 126.745,380.086L126.745,403.4C126.745,408.211 123.313,412.227 118.766,413.131L118.766,370.355ZM217.612,370.429L217.612,413.057C213.235,412.025 209.973,408.091 209.973,403.4L209.973,380.086C209.973,375.395 213.235,371.461 217.612,370.429Z" style="fill:rgb(255,243,135);"/>
        </g>
        <g transform="matrix(0.860985,0,0,0.860985,-61.5385,70.7053)">
            <path d="M210.491,495.896L212.968,495.896C219.328,495.896 224.491,501.06 224.491,507.419L224.491,534.498C224.491,540.858 219.328,546.021 212.968,546.021L210.491,546.021L210.491,495.896Z" style="fill:rgb(225,193,0);"/>
        </g>
        <g transform="matrix(-0.860985,0,0,0.860985,408.257,70.7053)">
            <path d="M210.491,495.896L212.968,495.896C219.328,495.896 224.491,501.06 224.491,507.419L224.491,534.498C224.491,540.858 219.328,546.021 212.968,546.021L210.491,546.021L210.491,495.896Z" style="fill:rgb(225,193,0);"/>
        </g>
        <g transform="matrix(1,0,0,1,6.53403,125.612)">
            <circle cx="166.655" cy="393.356" r="26.75" style="fill:rgb(255,243,135);"/>
        </g>
        <g id="CheckBox.TextureCheckedFocused.Part" transform="matrix(0.525114,0,0,0.587258,-63.3838,145.881)">
            <rect x="341.017" y="562.054" width="219" height="146.5" style="fill:rgb(178,147,0);fill-opacity:0;"/>
        </g>
    </g>
    <g id="Checked-Checkbox" serif:id="Checked Checkbox" transform="matrix(1,0,0,1,-94,-198.5)">
        <g transform="matrix(1,0,0,1,5,127.5)">
            <path d="M118.949,366.731C120.165,358.469 127.291,352.118 135.889,352.118L200.489,352.118C209.106,352.118 216.245,358.497 217.437,366.788C211.146,367.944 206.373,373.462 206.373,380.086L206.373,403.4C206.373,409.994 211.103,415.492 217.352,416.682C215.938,424.711 208.921,430.818 200.489,430.818L135.889,430.818C127.478,430.818 120.475,424.741 119.036,416.741C125.449,415.683 130.345,410.109 130.345,403.4C130.345,403.4 130.345,380.086 130.345,380.086C130.345,373.346 125.404,367.752 118.949,366.731ZM168.189,359.918C150.776,359.918 136.639,374.056 136.639,391.468C136.639,408.881 150.776,423.018 168.189,423.018C185.602,423.018 199.739,408.881 199.739,391.468C199.739,374.056 185.602,359.918 168.189,359.918ZM168.189,364.718C182.953,364.718 194.939,376.705 194.939,391.468C194.939,406.232 182.953,418.218 168.189,418.218C153.425,418.218 141.439,406.232 141.439,391.468C141.439,376.705 153.425,364.718 168.189,364.718ZM118.766,370.355C123.313,371.259 126.745,375.275 126.745,380.086L126.745,403.4C126.745,408.211 123.313,412.227 118.766,413.131L118.766,370.355ZM217.612,370.429L217.612,413.057C213.235,412.025 209.973,408.091 209.973,403.4L209.973,380.086C209.973,375.395 213.235,371.461 217.612,370.429Z" style="fill:rgb(165,134,0);"/>
        </g>
        <g transform="matrix(0.860985,0,0,0.860985,-61.5385,70.7053)">
            <path d="M210.491,495.896L212.968,495.896C219.328,495.896 224.491,501.06 224.491,507.419L224.491,534.498C224.491,540.858 219.328,546.021 212.968,546.021L210.491,546.021L210.491,495.896Z" style="fill:rgb(225,193,0);"/>
        </g>
        <g transform="matrix(-0.860985,0,0,0.860985,408.257,70.7053)">
            <path d="M210.491,495.896L212.968,495.896C219.328,495.896 224.491,501.06 224.491,507.419L224.491,534.498C224.491,540.858 219.328,546.021 212.968,546.021L210.491,546.021L210.491,495.896Z" style="fill:rgb(225,193,0);"/>
        </g>
        <g transform="matrix(1,0,0,1,6.53403,125.612)">
            <circle cx="166.655" cy="393.356" r="26.75" style="fill:rgb(255,244,136);"/>
        </g>
        <g id="CheckBox.TextureChecked.Part" transform="matrix(0.525114,0,0,0.587258,-63.3838,145.881)">
            <rect x="341.017" y="562.054" width="219" height="146.5" style="fill:rgb(178,147,0);fill-opacity:0;"/>
        </g>
    </g>
    <g id="Child-Window" serif:id="Child Window" transform="matrix(4,0,0,4,-2486.32,-274.465)">
        <g transform="matrix(0.25,0,0,0.25,657.83,101.427)">
            <path d="M263.655,48.541L308.69,48.541L364.917,100.541L333.234,128.541L263.655,128.478L194.076,128.541L162.393,100.541L218.62,48.541L263.655,48.541Z" style="fill:rgb(24,48,63);stroke:rgb(0,75,152);stroke-width:12px;"/>
        </g>
        <g id="ChildWindow.TextureTitlebar.Part" transform="matrix(0.689498,0,0,0.162116,413.113,20.5696)">
            <rect x="341.017" y="562.054" width="219" height="146.5" style="fill:rgb(178,147,0);fill-opacity:0;"/>
            <clipPath id="_clip13">
                <rect x="341.017" y="562.054" width="219" height="146.5"/>
            </clipPath>
            <g clip-path="url(#_clip13)">
                <g id="ChildWindow.TitleBarHeight" transform="matrix(0.25,0,0,0.315789,337.709,434.202)">
                    <rect x="341.017" y="562.054" width="219" height="146.5" style="fill:rgb(178,147,0);fill-opacity:0;"/>
                </g>
                <g id="ChildWindow.TextureTitlebar.Middle" transform="matrix(0.139625,0,0,1,387.556,-0.479968)">
                    <rect x="341.017" y="562.054" width="219" height="146.5" style="fill:rgb(178,147,0);fill-opacity:0;"/>
                </g>
            </g>
        </g>
    </g>
    <g id="Tab" transform="matrix(4,0,0,4,-2486.32,-379.465)">
        <g transform="matrix(0.25,0,0,0.25,657.83,101.427)">
            <path d="M263.655,48.541L308.69,48.541L364.917,100.541L333.234,128.541L263.655,128.478L194.076,128.541L162.393,100.541L218.62,48.541L263.655,48.541Z" style="fill:rgb(1,1,1);stroke:rgb(165,134,0);stroke-width:12px;"/>
        </g>
        <g id="Tabs.TextureTab.Part" transform="matrix(0.246575,0,0,0.162116,612.657,20.5696)">
            <rect x="341.017" y="562.054" width="219" height="146.5" style="fill:rgb(178,147,0);fill-opacity:0;"/>
            <clipPath id="_clip14">
                <rect x="341.017" y="562.054" width="219" height="146.5"/>
            </clipPath>
            <g clip-path="url(#_clip14)">
                <g id="Tabs.TextureTab.Middle" transform="matrix(0.139625,0,0,1,387.556,-0.479968)">
                    <rect x="341.017" y="562.054" width="219" height="146.5" style="fill:rgb(178,147,0);fill-opacity:0;"/>
                </g>
            </g>
        </g>
        <g id="Tabs.TextureSelectedTab.Part" transform="matrix(0.246575,0,0,0.162116,612.657,20.5696)">
            <rect x="341.017" y="562.054" width="219" height="146.5" style="fill:rgb(178,147,0);fill-opacity:0;"/>
            <clipPath id="_clip15">
                <rect x="341.017" y="562.054" width="219" height="146.5"/>
            </clipPath>
            <g clip-path="url(#_clip15)">
                <g id="Tabs.TextureSelectedTab.Middle" transform="matrix(0.139625,0,0,1,387.556,-0.479968)">
                    <rect x="341.017" y="562.054" width="219" height="146.5" style="fill:rgb(178,147,0);fill-opacity:0;"/>
                </g>
            </g>
        </g>
    </g>
    <g transform="matrix(1.32478,0,0,1.60819,-337.797,44.6246)">
        <path d="M1177,123.008C1177,116.824 1170.9,111.804 1163.39,111.804L907.929,111.804C900.423,111.804 894.329,116.824 894.329,123.008L894.329,415.267C894.329,421.451 900.423,426.471 907.929,426.471L1163.39,426.471C1170.9,426.471 1177,421.451 1177,415.267L1177,123.008Z" style="fill:rgb(17,34,45);"/>
        <clipPath id="_clip16">
            <path d="M1177,123.008C1177,116.824 1170.9,111.804 1163.39,111.804L907.929,111.804C900.423,111.804 894.329,116.824 894.329,123.008L894.329,415.267C894.329,421.451 900.423,426.471 907.929,426.471L1163.39,426.471C1170.9,426.471 1177,421.451 1177,415.267L1177,123.008Z"/>
        </clipPath>
        <g clip-path="url(#_clip16)">
            <g id="ChildWindow.TextureBackground.Part" transform="matrix(1.45205,0,0,2.20159,382.362,-1129.76)">
                <rect x="341.017" y="562.054" width="219" height="146.5" style="fill:rgb(178,147,0);fill-opacity:0;"/>
                <clipPath id="_clip17">
                    <rect x="341.017" y="562.054" width="219" height="146.5"/>
                </clipPath>
                <g clip-path="url(#_clip17)">
                    <g id="ChildWindow.TextureBackground.Middle" transform="matrix(1,-5.9153e-33,0,0.608209,-0.50774,246.471)">
                        <rect x="341.017" y="562.054" width="219" height="146.5" style="fill:rgb(178,147,0);fill-opacity:0;"/>
                    </g>
                </g>
            </g>
        </g>
        <path d="M1177,123.008C1177,116.824 1170.9,111.804 1163.39,111.804L907.929,111.804C900.423,111.804 894.329,116.824 894.329,123.008L894.329,415.267C894.329,421.451 900.423,426.471 907.929,426.471L1163.39,426.471C1170.9,426.471 1177,421.451 1177,415.267L1177,123.008Z" style="fill:none;stroke:rgb(0,57,119);stroke-width:4.07px;stroke-linecap:square;"/>
    </g>
    <g id="Text-Defaults" serif:id="Text Defaults" transform="matrix(1,0,0,1,0,160)">
        <g id="Normal">
            <g id="BitmapButton.TextColor" transform="matrix(1,0,0,1,265,-62)">
                <rect x="718.309" y="715.772" width="42" height="37.5" style="fill:rgb(225,193,0);"/>
            </g>
            <g id="TextBox.TextColor" transform="matrix(1,0,0,1,265,-62)">
                <rect x="718.309" y="715.772" width="42" height="37.5" style="fill:rgb(225,193,0);"/>
            </g>
            <g id="ComboBox.TextColor" transform="matrix(1,0,0,1,265,-62)">
                <rect x="718.309" y="715.772" width="42" height="37.5" style="fill:rgb(225,193,0);"/>
            </g>
            <g id="ListBox.TextColor" transform="matrix(1,0,0,1,265,-62)">
                <rect x="718.309" y="715.772" width="42" height="37.5" style="fill:rgb(225,193,0);"/>
            </g>
            <g id="Button.TextColor" transform="matrix(1,0,0,1,265,-62)">
                <rect x="718.309" y="715.772" width="42" height="37.5" style="fill:rgb(225,193,0);"/>
            </g>
            <g id="Label.TextColor" transform="matrix(1,0,0,1,265,-62)">
                <rect x="718.309" y="715.772" width="42" height="37.5" style="fill:rgb(225,193,0);"/>
            </g>
        </g>
        <g id="Widget-References" serif:id="Widget References" transform="matrix(1,0,0,1,-65,-48)">
            <g id="ComboBox.ListBox" transform="matrix(1,0,0,1,265,-62)">
                <rect x="718.309" y="715.772" width="42" height="37.5" style="fill:rgb(103,77,7);fill-opacity:0;"/>
            </g>
            <g id="TextBox.Scrollbar" transform="matrix(1,0,0,1,265,-62)">
                <rect x="718.309" y="715.772" width="42" height="37.5" style="fill:rgb(103,77,7);fill-opacity:0;"/>
            </g>
            <g id="Label.Scrollbar" transform="matrix(1,0,0,1,265,-62)">
                <rect x="718.309" y="715.772" width="42" height="37.5" style="fill:rgb(103,77,7);fill-opacity:0;"/>
            </g>
            <g id="ChatBox.Scrollbar" transform="matrix(1,0,0,1,265,-62)">
                <rect x="718.309" y="715.772" width="42" height="37.5" style="fill:rgb(103,77,7);fill-opacity:0;"/>
            </g>
            <g id="ListBox.Scrollbar" transform="matrix(1,0,0,1,265,-62)">
                <rect x="718.309" y="715.772" width="42" height="37.5" style="fill:rgb(103,77,7);fill-opacity:0;"/>
            </g>
        </g>
        <g id="List-Box-Settings" serif:id="List Box Settings" transform="matrix(1,0,0,1,-117,-48)">
            <g id="ListBox.BorderColor" transform="matrix(1,0,0,1,265,-62)">
                <rect x="718.309" y="715.772" width="42" height="37.5" style="fill:rgb(103,77,7);"/>
            </g>
            <g id="ListBox.BackgroundColor" transform="matrix(1,0,0,1,265,-14)">
                <rect x="718.309" y="715.772" width="42" height="37.5" style="fill:rgb(66,54,4);"/>
            </g>
        </g>
        <g id="Focused" transform="matrix(1,0,0,1,63,0)">
            <g id="BitmapButton.TextColorFocused" transform="matrix(1,0,0,1,265,-62)">
                <rect x="718.309" y="715.772" width="42" height="37.5" style="fill:rgb(255,243,135);"/>
            </g>
            <g id="EditBox.TextColorFocused" transform="matrix(1,0,0,1,265,-62)">
                <rect x="718.309" y="715.772" width="42" height="37.5" style="fill:rgb(255,243,135);"/>
            </g>
            <g id="Button.TextColorFocused" transform="matrix(1,0,0,1,265,-62)">
                <rect x="718.309" y="715.772" width="42" height="37.5" style="fill:rgb(255,243,135);"/>
            </g>
        </g>
        <g id="Disabled">
            <g id="BitmapButton.TextColorDisabled" transform="matrix(1,0,0,1,200,-62)">
                <rect x="718.309" y="715.772" width="42" height="37.5" style="fill:rgb(135,135,135);"/>
            </g>
            <g id="ComboBox.TextColorDisabled" transform="matrix(1,0,0,1,200,-62)">
                <rect x="718.309" y="715.772" width="42" height="37.5" style="fill:rgb(135,135,135);"/>
            </g>
            <g id="Button.TextColorDisabled" transform="matrix(1,0,0,1,200,-62)">
                <rect x="718.309" y="715.772" width="42" height="37.5" style="fill:rgb(135,135,135);"/>
            </g>
        </g>
    </g>
</svg>
